<?xml version="1.0" standalone="yes"?>
<svg xmlns="http://www.w3.org/2000/svg" width="192" height="192">
<path style="fill:#d66c46; stroke:none;" d="M0 0L0 16C7.3455 15.1876 13.0572 9.66307 20 7.36266C25.5184 5.53419 29.7677 8.47968 35 7.58873C39.0591 6.89755 41.7936 3.12114 44 0L0 0z"/>
<path style="fill:#e7dfd9; stroke:none;" d="M0 16L0 20C7.14079 17.9429 12.9193 12.8236 20 10.7894C25.5291 9.20087 30.895 12.4835 36 11.2122C40.8627 10.0012 45.0659 3.99745 49 1C42.8229 -1.30742 40.3796 5.87489 35 7.21219C30.5094 8.32849 25.84 5.52249 21 6.7608C13.4784 8.68521 7.53892 14.5047 0 16z"/>
<path style="fill:#4f4a4f; stroke:none;" d="M0 22C9.66876 19.2093 16.4821 12.2182 27 12C22.1217 13.5566 14.2048 14.2017 13 20C9.50476 19.7697 -2.99471 22.359 1.04707 28.3156C4.45763 33.3419 14.623 33.9846 20 34L20 37C12.4469 36.9375 7.03618 33.7255 0 32C0.0134775 35.1942 -0.40285 37.2708 3 38C1.77218 41.0112 0.570551 43.7921 0 47C2.03563 44.5342 3.11336 42.0708 4 39L16 42C14.1949 46.3414 12.0925 50.4005 11 55C16.807 47.8122 19.708 37.7856 25.0285 30C32.6044 18.9142 42.6913 10.3045 51 0C47.4644 1.36975 44.774 3.32285 42.0903 6.03857C40.4123 7.73656 38.7327 10.6172 36.3349 11.3634C33.2932 12.31 28.342 9.97211 25 10.0185C17.6045 10.1212 4.21075 15.8229 0 22z"/>
<path style="fill:#d66c46; stroke:none;" d="M51 0L52 1L51 0z"/>
<path style="fill:#e7dfd9; stroke:none;" d="M31 131L28 119C31.7656 123.595 31.8645 130.362 33.2392 136C34.3095 140.39 36.3336 144.465 36.8264 149C37.6459 156.542 36.746 162.108 43.0432 167.674C48.0331 172.085 53.8569 174.202 60 176.414C79.4714 183.425 99.4485 183.516 119 177C125.458 174.848 133.733 173.325 138.686 168.319C142.092 164.877 141.76 159.412 142.923 155C145.662 144.602 150.53 134.92 151 124C153.1 132.315 148.076 142.064 145.721 150C142.495 160.871 142.065 171.283 146 182C147.778 176.22 146.501 167.325 147 161C150.394 172.169 149.66 186.197 162 192L161 188C163.96 190.866 165.881 191.864 170 192C166.55 179.386 157.176 169.224 155.34 156C154.53 150.172 156.475 143.696 157.54 138C158.838 131.06 159.117 123.99 160 117C153.892 115.532 146.693 111.133 146.413 104C146.293 100.941 148.695 98.0377 147.709 95C146.239 90.4696 140.736 86.8843 138 83C142.176 87.176 146.165 91.5943 151 95C149.034 88.7119 147.049 82.8924 144.033 77C141.28 71.6208 137.692 66.8612 136 61C141.736 69.0319 145.935 78.1712 151.254 86.4552C153.581 90.0797 153.239 93.174 158 94C157.99 78.6008 152.921 64.6685 149 50C156.807 61.6802 159.885 81.1203 160 95L165 97C168 86.427 169.433 74.9693 167.381 64C164.326 47.6653 154.53 33.8344 146 20C156.567 31.5783 164.131 45.6234 169.826 60C172.186 65.9603 175.039 71.5169 175.816 78C176.843 86.5843 174.475 94.7172 172.823 103C171.555 109.355 172.076 113.979 169 120C171.928 119.478 176.156 119.879 178.671 118.228C181.627 116.287 183.145 112.141 184.384 109C187.862 100.186 189 91.3868 189 82C189 68.988 188.694 55.5565 184.779 43C179.314 25.4686 164.689 9.03188 148 1.27777C141.58 -1.70532 131.947 0 125 0L75 0C67.9683 0 57.4602 -1.93231 51.0039 1.16435C41.3049 5.81625 32.7164 18.4394 26.7215 27C10.4928 50.1741 2.67816 77.469 12.0039 105C15.3865 114.986 21.3505 125.959 31 131z"/>
<path style="fill:#4f4a4f; stroke:none;" d="M147 0C156.219 8.82922 167.449 14.5722 175.471 25C189.427 43.1421 191.96 72.1233 188.41 94C186.859 103.566 183.965 113.889 176 120C180.272 123.54 183.754 127.207 184.443 133C186.189 147.689 169.587 160.122 156 157C157.134 169.986 166.067 179.933 170 192C171.534 186.812 167.664 181.313 165.061 177C161.747 171.51 158.954 165.368 158 159C172.484 158.88 186.904 150.249 185.906 134C185.597 128.975 181.146 123.692 181.646 119C182.095 114.787 185.763 110.234 187 106C187.902 114.205 186.509 122.715 187.09 131C187.631 138.725 190.009 146.324 191 154C192.832 149.625 191.2 145.447 190.285 141C189.095 135.209 188.232 128.909 188.043 123C187.24 97.8079 196.264 71.7295 187 47L192 48L192 42C189.558 41.8905 187.377 41.572 185 41C187.418 40.2776 189.472 40.0519 192 40C192 27.1717 197.024 5.57216 179 4.09335C175.756 3.82719 172.098 3.78403 169 4.88812C166.727 5.69814 164.54 7.72241 162 7.47762C156.713 6.96805 152.554 1.07471 147 0z"/>
<path style="fill:#d66c46; stroke:none;" d="M150 0L151 1L150 0z"/>
<path style="fill:#e7dfd9; stroke:none;" d="M151 0C154.387 4.10028 158.94 7.3223 164 9C173.048 -0.756699 182.378 5.23453 192 10C190.603 1.68497 178.269 -1.18117 171 0.53241C168.297 1.16948 165.767 3.15808 163 3.36574C159.062 3.66122 155.157 0.278976 151 0z"/>
<path style="fill:#d66c46; stroke:none;" d="M156 0C161.241 5.79645 164.607 3.01801 171 1C166.529 -0.876297 160.817 0 156 0M179 0C182.906 2.38994 187.741 4.24663 192 6L192 0L179 0M148 1L149 2L148 1M47 3L48 4L47 3M151 3L152 4L151 3M174 3C175.769 3.77895 177.036 3.91241 179 4C177.231 3.22107 175.964 3.08759 174 3M46 4L47 5L46 4M169 4L170 5L169 4M182 4L183 5L182 4M154 5L155 6L154 5M157 5L158 6L157 5M44 6L45 7L44 6M157 7L158 8L157 7M164 7L165 8L164 7M161 8L162 9L161 8M41 9L42 10L41 9M190 9L191 10L190 9M38 10L39 11L38 10M40 10L41 11L40 10M161 10L162 11L161 10M37 11L38 12L37 11M162 11L163 12L162 11M0 24C4.27479 22.2462 8.28988 19.9221 13 20C14.1884 14.8754 22.34 13.1612 27 13C19.4067 9.84344 4.22048 17.5559 0 24M36 12L37 13L36 12M13 13L14 14L13 13M6 17L7 18L6 17M34 17L35 18L34 17M143 17L144 18L143 17M4 18L5 19L4 18M33 18L34 19L33 18z"/>
<path style="fill:#4f4a4f; stroke:none;" d="M144 18L145 19L144 18M145 19L146 20L145 19M146 20L147 21L146 20z"/>
<path style="fill:#d66c46; stroke:none;" d="M146 21L151 29C151.898 25.099 149.307 22.6961 146 21M29 23L30 24L29 23M174 23L175 24L174 23M175 24L176 25L175 24M26 27L27 28L26 27M177 27L178 28L177 27z"/>
<path style="fill:#4f4a4f; stroke:none;" d="M152 28C154.114 35.188 159.074 41.1232 161.985 48C169.143 64.9087 169.656 79.4462 165 97C162.327 95.4959 160.019 94.5352 157 94C159.182 95.7245 161.844 96.9947 163.684 99.1327C166.342 102.223 165.83 105.617 170 107C169.043 108.517 168.613 109.339 168 111C169.893 109.16 171.047 108.011 169 106C175.58 78.6783 171.735 49.0085 152 28z"/>
<path style="fill:#d66c46; stroke:none;" d="M0 29C2.4698 36.4419 13.3768 36.9817 20 37L20 34C12.6897 33.9346 6.92626 30.727 0 29M153 29L154 30L153 29M24 30L25 31L24 30M85 30L84 35C85.8429 33.547 86.2585 32.2647 87 30L85 30M119 30L120 44C121.614 40.0425 120.648 33.891 119 30M152 30L153 31L152 30M179 31L180 32L179 31M58 32C57.0143 33.4785 57 33.2032 57 35C58.7663 34.0214 58.9554 33.7782 58 32M22 33L23 34L22 33M156 34L157 35L156 34M21 35L22 36L21 35z"/>
<path style="fill:#4f4a4f; stroke:none;" d="M57 35L57 38C57.6961 36.4463 57.6961 36.5537 57 35M84 35L84 41C84.9511 38.7147 84.9511 37.2853 84 35z"/>
<path style="fill:#d66c46; stroke:none;" d="M155 35L156 36L155 35M181 35L182 36L181 35M182 37L183 38L182 37z"/>
<path style="fill:#e7dfd9; stroke:none;" d="M0 38L0 43C1.72263 41.1284 1.96673 40.5361 2 38L0 38z"/>
<path style="fill:#d66c46; stroke:none;" d="M2 38L3 39L2 38M19 38L20 39L19 38M47 38L46 41C47.7663 40.0214 47.9554 39.7782 47 38M57 38C56.4382 39.8006 56.1759 41.1218 56 43C57.3182 41.0739 57.6513 40.2341 57 38z"/>
<path style="fill:#e7dfd9; stroke:none;" d="M4 39C2.8523 42.3179 0.929231 45.5469 0.27392 49C-2.21381 62.1088 0 77.6524 0 91L0 175C4.29294 168.534 5.103 161.402 6.32485 154C7.86633 144.661 10.3665 135.622 9.96065 126C9.49355 114.926 5.85149 104.127 5.08951 93C4.48773 84.2123 6.82099 75.7129 6.82099 67C6.82099 60.247 3.15688 53.463 3.40895 47C3.51675 44.236 5.09 41.5644 6 39L4 39z"/>
<path style="fill:#d66c46; stroke:none;" d="M183 39L184 40L183 39M8 69C9.88883 67.1112 7.22047 66.1181 8 63C8.5622 60.7512 9.48914 57.8886 11 56L12 57C11.8004 51.4178 14.4974 47.2179 16 42C13.0959 41.1842 9.12735 39.4552 6.22839 41.0671C3.78339 42.4267 3.06824 45.4065 3.22917 48C3.42396 51.1393 5.00302 53.9541 5.62191 57C6.46156 61.1324 6.49764 64.9884 8 69M18 40L19 41L18 40M185 40C187.308 41.7595 189.092 41.9172 192 42L192 40L185 40z"/>
<path style="fill:#4f4a4f; stroke:none;" d="M46 41L46 44C46.6961 42.4463 46.6961 42.5537 46 41z"/>
<path style="fill:#d66c46; stroke:none;" d="M84 41C80.447 53.0201 84.9733 72.1493 95 80C91.9094 72.5431 87.2341 66.0935 85.5177 58C84.3398 52.4451 86.2007 46.2445 84 41M184 41L185 42L184 41M17 42L18 43L17 42M81 42L81 47C81.8299 44.9695 81.8299 44.0305 81 42M159 42L160 43L159 42M0 43L1 44L0 43M2 43L3 44L2 43z"/>
<path style="fill:#4f4a4f; stroke:none;" d="M56 43L56 55C57.5124 51.3957 57.5124 46.6043 56 43z"/>
<path style="fill:#d66c46; stroke:none;" d="M16 44L17 45L16 44M29 71C30.0811 69.542 30.436 68.752 31 67C31.3156 71.9214 28.827 76.1942 28 81C31.1265 78.6306 31.4158 74.5902 32.6983 71C34.5335 65.8623 37.4878 61.2494 39 56C35.8827 59.0844 34.2083 62.8058 33 67C32.7574 58.3795 38.6827 51.0023 43 44C34.8064 48.189 29.8775 62.2442 29 71z"/>
<path style="fill:#4f4a4f; stroke:none;" d="M45 44C44.4379 47.0251 44.0636 49.922 44 53C45.57 50.0465 46.2311 47.155 45 44z"/>
<path style="fill:#d66c46; stroke:none;" d="M160 44L161 45L160 44M185.333 44.6667C185.278 44.7222 185.222 45.7778 185.667 45.3333C185.722 45.2778 185.778 44.2222 185.333 44.6667M1 45L2 46L1 45M86 45C86.8465 58.177 97.8075 72.3773 110 77C105.663 71.8857 99.7066 68.5082 95.6096 63C91.474 57.4401 89.8077 50.6671 86 45M123 45L123 55C124.979 51.8187 124.506 48.3626 123 45M15 46L16 47L15 46M121.333 46.6667C121.278 46.7222 121.222 47.7778 121.667 47.3333C121.722 47.2777 121.778 46.2223 121.333 46.6667M161 46L162 47L161 46M187 47C190.49 59.4185 191.524 72.1395 190.961 85C190.755 89.6898 187.722 96.7671 192 100L192 48L187 47M14 48L15 49L14 48M53 48C52.4898 52.0367 52.0113 55.92 52 60C54.5462 56.6391 54.6211 51.8633 53 48M149 50C149.697 54.1027 150.589 59.4152 154 62C153 57.6385 152.123 53.2912 149 50M186 50L186 53C186.696 51.4463 186.696 51.5537 186 50M163 51L164 52L163 51M43.3333 52.6667C43.2777 52.7223 43.2222 53.7778 43.6667 53.3333C43.7222 53.2778 43.7778 52.2222 43.3333 52.6667M167.333 52.6667C167.278 52.7222 167.222 53.7778 167.667 53.3333C167.722 53.2777 167.778 52.2223 167.333 52.6667M12 53L13 54L12 53z"/>
<path style="fill:#4f4a4f; stroke:none;" d="M124 53C124.026 56.1217 124.276 58.9605 125 62C126.104 58.9204 125.404 55.9216 124 53M43 54L43 71C44.8826 66.5135 44.8826 58.4865 43 54z"/>
<path style="fill:#d66c46; stroke:none;" d="M56 55C56.1174 57.7301 56.4992 60.3142 57 63C58.2318 59.9774 57.8253 57.672 56 55M80 55C80.1244 61.026 81.0671 67.2903 83 73C84.3383 68.5927 82.5978 58.8026 80 55M106 55C106.396 59.8362 107.278 63.7272 111 67C109.872 62.867 108.727 58.3152 106 55z"/>
<path style="fill:#4f4a4f; stroke:none;" d="M10 56C8.96578 59.6803 8.16687 63.1726 8 67C9.80379 63.6806 11.2932 59.6455 10 56z"/>
<path style="fill:#d66c46; stroke:none;" d="M165 57L166 58L165 57M42 58L42 68C43.3457 64.793 43.3457 61.207 42 58M126 60L125 64C126.303 62.3324 126.553 62.0078 126 60M53 61L53 64C54.1952 62.7772 54.3164 62.58 55 61L53 61M136 61C136.934 66.2389 139.52 70.9947 143 75C143.007 69.8238 139.638 64.5888 136 61M170 61C170.106 66.1178 171.73 70.918 171.961 76C172.411 85.9299 170.816 96.2545 169 106C169.993 108.331 169.436 108.774 168 111L170 107C166.374 105.002 166.717 102.238 164.401 99.1327C161.902 95.7809 157.4 95.5045 154.728 92.5008C150.904 88.2041 150.385 82.2206 145 79C146.676 84.3077 148.81 89.8653 151 95C146.596 91.4135 142.633 87.2631 138 84C141.549 89.0385 146.257 93.0872 150 98L147 98L148 102C144.883 102.52 146.365 106.48 147 109L149 108C150.404 117.073 160.309 115.835 167 113C166.813 116.7 164.933 120.432 168 123L167 121L170 122C172.254 103.164 182.938 78.475 170 61M188.333 61.6667C188.278 61.7222 188.222 62.7778 188.667 62.3333C188.722 62.2778 188.778 61.2222 188.333 61.6667z"/>
<path style="fill:#4f4a4f; stroke:none;" d="M153.333 62.6667C153.278 62.7222 153.222 63.7778 153.667 63.3333C153.722 63.2778 153.778 62.2222 153.333 62.6667M126 63C126.487 68.5374 128.137 73.9295 133 77C130.936 72.4853 128.947 66.9399 126 63z"/>
<path style="fill:#d66c46; stroke:none;" d="M154 63L153 65L155 65C155 63.1468 155.3 63.6499 154 63z"/>
<path style="fill:#4f4a4f; stroke:none;" d="M53 64L53 67C53.6961 65.4463 53.6961 65.5537 53 64z"/>
<path style="fill:#d66c46; stroke:none;" d="M58 64C59.3711 73.1475 65.6007 81.2975 75 83C71.5123 79.8063 67.3694 77.6832 64.2137 73.9961C61.5996 70.9418 60.3854 67.1513 58 64z"/>
<path style="fill:#4f4a4f; stroke:none;" d="M154 65C154.371 73.1216 157.648 80.8216 158 89C160.655 82.6714 157.815 70.4888 154 65z"/>
<path style="fill:#d66c46; stroke:none;" d="M52 67C52.5451 68.6352 52.3648 68.4549 54 69L54 67L52 67z"/>
<path style="fill:#4f4a4f; stroke:none;" d="M7 68L7 77C8.25612 74.0059 8.25612 70.9941 7 68M52 68L52 77C53.2561 74.0059 53.2561 70.9941 52 68z"/>
<path style="fill:#d66c46; stroke:none;" d="M6 70C5.99489 77.7107 4.70056 85.263 5.03935 93C5.33238 99.6919 6.86158 106.294 7 113C8.32737 109.837 7.99962 106.414 8 103L9 105C10.3714 100.484 7.64604 95.6105 7.17438 91C6.44176 83.8387 9.00027 76.9552 6 70M156.333 70.6667C156.278 70.7223 156.222 71.7778 156.667 71.3333C156.722 71.2778 156.778 70.2222 156.333 70.6667M168 70L168 80C169.346 76.793 169.346 73.207 168 70M44 71C44.3184 73.8771 44.62 75.3344 47 77C46.1421 74.8399 45.2925 72.9225 44 71M128 72L129 73L128 72M130 73L131 74L130 73z"/>
<path style="fill:#4f4a4f; stroke:none;" d="M143 74C143.547 75.8751 144.11 77.2553 145 79C145.375 76.581 144.693 75.7818 143 74z"/>
<path style="fill:#d66c46; stroke:none;" d="M189 74L189 87C190.591 83.2087 190.591 77.7913 189 74M130 76L134 83C134.741 80.6066 134.302 78.5074 134 76L130 76z"/>
<path style="fill:#4f4a4f; stroke:none;" d="M46 77C46.9357 78.9486 47.3924 79.5502 49 81C48.0448 79.2328 47.4336 78.3926 46 77z"/>
<path style="fill:#d66c46; stroke:none;" d="M52 77L52 80C52.6961 78.4463 52.6961 78.5537 52 77M122 79C124.3 79.9157 125.377 79.8793 127 78L122 79z"/>
<path style="fill:#4f4a4f; stroke:none;" d="M134 78C134.936 79.9486 135.392 80.5502 137 82C136.045 80.2328 135.434 79.3925 134 78z"/>
<path style="fill:#d66c46; stroke:none;" d="M48 79L49 80L48 79M136 80L137 81L136 80z"/>
<path style="fill:#4f4a4f; stroke:none;" d="M28 81L28 84C28.6961 82.4463 28.6961 82.5537 28 81M49 81L50 82L49 81z"/>
<path style="fill:#d66c46; stroke:none;" d="M27 82L28 88C28.8888 85.492 28.495 84.1851 27 82z"/>
<path style="fill:#4f4a4f; stroke:none;" d="M50 82L51 83L50 82M137 82L138 83L137 82z"/>
<path style="fill:#d66c46; stroke:none;" d="M180 82C180 95.0937 175.602 105.492 173 118C175.662 116.041 176.653 113.104 177.761 110C180.448 102.47 183.189 89.599 180 82z"/>
<path style="fill:#4f4a4f; stroke:none;" d="M7 83C7 90.7451 8.44415 97.4621 10 105L9 103C6.66961 108.554 8.76291 114.361 9.67515 120C10.4477 124.775 10.2404 130.182 9.91049 135C9.48468 141.218 9.50167 149.047 7.86728 155C5.32885 164.245 0.203706 172.183 0 182C2.82145 176.809 4.32782 170.557 6.42361 165C11.7183 150.96 16.9581 136.171 17 121C18.8487 123.974 20.7775 127.406 21.0162 131C21.2847 135.041 19.5878 138.854 20.213 143C20.7861 146.801 23.4769 150.082 23.2724 154C23.0197 158.84 20.3081 163.308 19.3789 168C17.4776 177.6 23.3777 187.799 32 192C26.9241 184.188 25.0062 177.326 25 168C22.9097 172.981 23.9524 179.147 26 184C16.4028 174.953 24.064 163.72 25 153L28 156L26 156C31.2306 168.344 25.6544 185.098 41 192C36.0956 182.64 35.0636 174.43 37 164C44.9328 171.866 53.3092 176.449 64 179.576C70.1666 181.379 79.4412 181.18 83 187C78.4672 187.248 75.8364 188.422 73 192C77.1116 190.322 79.5557 188.608 84 190C84.7264 187.821 84.4395 188.22 86 189L84 184C85.0226 185.534 84.8046 185.402 86 186L91 183C85.8593 180.838 79.4909 181.533 74 180.535C61.9842 178.354 44.0594 172.756 38.179 161C36.3913 157.426 37 152.876 37 149C35.7871 151.89 36.0017 154.874 36 158C25.3743 154.473 13.3992 136.352 29 131C24.0022 123.751 17.5375 118.322 14.0147 110C10.3521 101.347 10.7259 91.2997 7 83M51 83L52 84L51 83M138 83L139 84L138 83z"/>
<path style="fill:#d66c46; stroke:none;" d="M157.333 83.6667C157.278 83.7222 157.222 84.7778 157.667 84.3333C157.722 84.2778 157.778 83.2222 157.333 83.6667M45 84C46.543 85.2667 47.0478 85.4893 49 86C47.542 84.9189 46.7519 84.5639 45 84z"/>
<path style="fill:#4f4a4f; stroke:none;" d="M52 84C53.2228 85.1952 53.42 85.3164 55 86C53.7772 84.8048 53.58 84.6836 52 84z"/>
<path style="fill:#d66c46; stroke:none;" d="M122 84C122 85.7968 122.014 85.5215 123 87C120.868 87.7765 120.229 88.1302 119 90C122.14 88.3168 124.691 86.7152 127 84L122 84z"/>
<path style="fill:#4f4a4f; stroke:none;" d="M139 84L140 85L139 84M27 85L27 90C27.8299 87.9695 27.8299 87.0305 27 85z"/>
<path style="fill:#d66c46; stroke:none;" d="M119.333 85.6667C119.278 85.7222 119.222 86.7778 119.667 86.3333C119.722 86.2778 119.778 85.2222 119.333 85.6667z"/>
<path style="fill:#4f4a4f; stroke:none;" d="M120.667 85.3333C120.222 85.7777 121.278 85.7222 121.333 85.6667C121.778 85.2222 120.722 85.2778 120.667 85.3333M140 85L141 86L140 85M48 86C49.2228 87.1952 49.42 87.3164 51 88C49.7772 86.8048 49.58 86.6836 48 86z"/>
<path style="fill:#d66c46; stroke:none;" d="M55 86L56 87L55 86M114 87C115.506 87.683 116.315 87.8259 118 88C116.276 86.9445 116.079 86.9642 114 87z"/>
<path style="fill:#4f4a4f; stroke:none;" d="M117.667 86.3333C117.222 86.7778 118.278 86.7222 118.333 86.6667C118.778 86.2222 117.722 86.2778 117.667 86.3333M141 86L142 87L141 86z"/>
<path style="fill:#d66c46; stroke:none;" d="M50 89L53 89L52 87C50.3648 87.5451 50.5451 87.3648 50 89z"/>
<path style="fill:#4f4a4f; stroke:none;" d="M142 87L143 88L142 87z"/>
<path style="fill:#d66c46; stroke:none;" d="M159 87C158.428 89.3772 158.11 91.558 158 94L160 94C159.981 91.4566 159.985 89.3316 159 87M112.667 88.3333C112.222 88.7778 113.278 88.7222 113.333 88.6667C113.778 88.2222 112.722 88.2778 112.667 88.3333z"/>
<path style="fill:#4f4a4f; stroke:none;" d="M143 88L144 89L143 88z"/>
<path style="fill:#d66c46; stroke:none;" d="M26 89L26 107C27.869 102.546 28.92 92.9149 26 89z"/>
<path style="fill:#4f4a4f; stroke:none;" d="M53 89L54 90L53 89z"/>
<path style="fill:#d66c46; stroke:none;" d="M54 89C54.9357 90.9486 55.3924 91.5502 57 93C56.0643 91.0515 55.6076 90.4498 54 89M117 89L118 90L117 89z"/>
<path style="fill:#4f4a4f; stroke:none;" d="M118 89L119 90L118 89M144 89L145 90L144 89z"/>
<path style="fill:#d66c46; stroke:none;" d="M51 90L52 91L51 90z"/>
<path style="fill:#4f4a4f; stroke:none;" d="M116.667 90.3333C116.222 90.7778 117.278 90.7222 117.333 90.6667C117.778 90.2222 116.722 90.2778 116.667 90.3333M145 90L146 91L145 90M52 91L53 92L52 91M113 93L116 92C114.234 91.5991 114.443 91.7108 113 93M146 91L147 92L146 91z"/>
<path style="fill:#d66c46; stroke:none;" d="M166.333 91.6667C166.278 91.7222 166.222 92.7778 166.667 92.3333C166.722 92.2778 166.778 91.2222 166.333 91.6667M53 92L56 98C56.6228 95.039 55.2669 93.873 53 92z"/>
<path style="fill:#4f4a4f; stroke:none;" d="M57 92L58 93L57 92z"/>
<path style="fill:#d66c46; stroke:none;" d="M112 92L107 95C109.328 95.5962 112.495 94.7929 112 92M114 92L115 93L114 92z"/>
<path style="fill:#4f4a4f; stroke:none;" d="M147 92L148 93L147 92M58 93L59 94L58 93z"/>
<path style="fill:#d66c46; stroke:none;" d="M59 93C60.4821 96.104 61.896 97.5179 65 99C63.2048 96.4925 61.5075 94.7952 59 93M106 93C105.11 94.7447 104.547 96.125 104 98C105.553 96.2344 106.157 95.3413 106 93M162 95L163 96L162 95M18 96C18 105.274 18.7684 114.57 23 123C23.5921 119.623 21.7515 116.352 21.0154 113C19.7805 107.377 20.5225 101.249 18 96z"/>
<path style="fill:#4f4a4f; stroke:none;" d="M57 97L58 98L57 97M148 97L148 99C149.635 98.455 149.455 98.6352 150 97L148 97z"/>
<path style="fill:#d66c46; stroke:none;" d="M58 98L59 99L58 98z"/>
<path style="fill:#4f4a4f; stroke:none;" d="M153.129 98.8904C148.771 100.117 150.346 106.749 154.87 105.288C158.968 103.964 157.383 97.6932 153.129 98.8904z"/>
<path style="fill:#d66c46; stroke:none;" d="M187.333 98.6667C187.278 98.7223 187.222 99.7777 187.667 99.3333C187.722 99.2778 187.778 98.2222 187.333 98.6667M59 99L60 100L59 99z"/>
<path style="fill:#4f4a4f; stroke:none;" d="M147 99L147 102C147.696 100.446 147.696 100.554 147 99z"/>
<path style="fill:#d66c46; stroke:none;" d="M60 100C61.543 101.267 62.0478 101.489 64 102C62.542 100.919 61.7519 100.564 60 100M155 100L156 101L155 100z"/>
<path style="fill:#e7dfd9; stroke:none;" d="M190 100C189.917 110.02 188.597 119.912 189.039 130C189.261 135.045 190.603 139.97 191 145C192.875 140.531 192 134.809 192 130L192 100L190 100z"/>
<path style="fill:#d66c46; stroke:none;" d="M151 101L152 102L151 101z"/>
<path style="fill:#e7dfd9; stroke:none;" d="M152 101C152 102.797 152.014 102.521 153 104L155 104C155.986 102.522 156 102.797 156 101L152 101z"/>
<path style="fill:#d66c46; stroke:none;" d="M186 102L187 103L186 102M11 103L12 104L11 103M152 103L153 104L152 103M155 103L156 104L155 103M113 104L113 106C114.635 105.455 114.455 105.635 115 104L113 104M153 104L154 105L153 104M111 105L112 106L111 105z"/>
<path style="fill:#4f4a4f; stroke:none;" d="M112 105L113 106L112 105z"/>
<path style="fill:#d66c46; stroke:none;" d="M12 106L13 107L12 106z"/>
<path style="fill:#4f4a4f; stroke:none;" d="M109 108L112 107C110.234 106.599 110.443 106.711 109 108z"/>
<path style="fill:#d66c46; stroke:none;" d="M124 106C125.248 106.685 125.548 106.749 127 107C125.752 106.315 125.452 106.251 124 106M187 106C187.031 107.832 186.92 107.559 188 109C187.749 107.548 187.685 107.248 187 106M189.333 106.667C189.278 106.722 189.222 107.778 189.667 107.333C189.722 107.278 189.778 106.222 189.333 106.667M110 107L111 108L110 107M119 107L120 108L119 107z"/>
<path style="fill:#4f4a4f; stroke:none;" d="M105 119C106.416 118.528 106.814 118.186 108 117L107 121L115 114C112.236 122.718 112.739 130.481 116 139C117.324 134.855 116.964 129.412 117 125C119.528 124.948 121.582 124.722 124 124C124.849 125.991 125.267 126.778 127 128C124.873 131.82 127.209 133.876 131 135C132.11 132.272 133.422 129.909 134 127C137.02 128.437 138.754 128.8 142 128L143 133C144.327 129.837 144 126.414 144 123C141.226 122.567 133.546 117.739 139.323 115.117C146.603 111.813 146.656 124.452 146 128C149.641 124.543 152.111 120.697 157 119C142.306 112.33 126.989 100.144 111.005 111.928C108.255 113.955 106.448 115.959 105 119z"/>
<path style="fill:#d66c46; stroke:none;" d="M27 108L27 116C28.5716 113.281 28.2727 110.862 27 108M57 108C59.4658 110.036 61.9292 111.113 65 112C62.5583 109.435 60.5085 108.467 57 108M107 108L107 110C108.635 109.455 108.455 109.635 109 108L107 108M116 108L117 109L116 108M136 108L137 109L136 108z"/>
<path style="fill:#4f4a4f; stroke:none;" d="M148.333 108.667C148.278 108.722 148.222 109.778 148.667 109.333C148.722 109.278 148.778 108.222 148.333 108.667M164 108C163.861 110.453 163.929 110.676 166 112C165.489 110.048 165.267 109.543 164 108z"/>
<path style="fill:#d66c46; stroke:none;" d="M184 108L185 109L184 108z"/>
<path style="fill:#e7dfd9; stroke:none;" d="M186 108C184.898 111.745 180.901 116.149 181.098 120C181.327 124.478 185.531 128.162 185.906 133C187.151 149.054 172.5 158.701 158 159C159.869 168.668 164.692 175.321 168.75 184C170.293 187.301 170.136 191.176 174 192C172.571 180.941 165.43 172.456 162 162C173.146 160.584 179.449 156.13 187 148C187.833 154.449 189.554 160.678 191 167C193.384 161.318 191.498 154.768 190.285 149C188.549 140.748 186.96 132.416 186.17 124C185.674 118.721 188.049 112.93 186 108z"/>
<path style="fill:#d66c46; stroke:none;" d="M46.6667 109.333C46.2222 109.778 47.2778 109.722 47.3333 109.667C47.7777 109.222 46.7222 109.278 46.6667 109.333z"/>
<path style="fill:#4f4a4f; stroke:none;" d="M28 115C32.6173 120.344 35.7092 124.764 39 131C39.7226 123.703 38.4042 118.32 46 114C42.979 122.289 44.0433 132.116 48 140C49.0151 135.777 48.6478 130.463 49 126L53 125C53.4754 127.365 53.9336 127.661 56 129C54.5215 129.986 54.7968 130 53 130C53.8212 132.835 57.426 138.083 60.142 133.423C61.5072 131.08 60.998 127.597 61 125C63.5096 127.853 65.213 129.406 69 130C68.9856 135.221 68.0496 139.912 67 145C71.1385 139.821 70.7831 134.229 70 128C65.4314 127.551 64.2775 125.413 65 121L71 125C67.8262 115.664 56.0989 107.269 46 109.932C38.92 111.799 35.7906 116.419 28 115z"/>
<path style="fill:#d66c46; stroke:none;" d="M52 109C53.2484 109.685 53.5484 109.749 55 110C53.7517 109.315 53.4516 109.251 52 109M114 109L115 110L114 109M43 110L44 111L43 110M56 110L57 111L56 110z"/>
<path style="fill:#4f4a4f; stroke:none;" d="M149 110L150 111L149 110z"/>
<path style="fill:#d66c46; stroke:none;" d="M14 111L15 112L14 111M41 111L42 112L41 111M58 111L59 112L58 111M111 111L112 112L111 111M183 111L184 112L183 111M110 112L111 113L110 112M144 112L145 113L144 112M15 113L16 114L15 113M38 113L39 114L38 113M61 113L62 114L61 113M140 113L141 114L140 113z"/>
<path style="fill:#4f4a4f; stroke:none;" d="M152 113L153 114L152 113M154 115C156.052 115.874 157.747 115.953 160 116L159 130C162.099 127.698 164.668 125.078 167 122C165.714 119.521 166.935 115.869 167 113C162.534 114.393 158.682 114.996 154 115z"/>
<path style="fill:#d66c46; stroke:none;" d="M182 113L183 114L182 113M37 114L38 115L37 114M44 114C44.5451 115.635 44.3648 115.455 46 116L46 114L44 114M114 114L115 115L114 114M147 114L148 115L147 114M183 114L184 115L183 114M16 115L17 116L16 115M36 115L37 116L36 115M42 115L43 116L42 115M137 115L138 116L137 115M143 115L144 116L143 115M148 115L149 116L148 115M186 115L186 127C187.512 123.396 187.512 118.604 186 115M65 116L66 117L65 116M149 116L150 117L149 116M157 116C158.248 116.685 158.548 116.749 160 117C158.752 116.315 158.452 116.251 157 116M188 116L188 128C189.512 124.396 189.512 119.604 188 116M30 117L31 118L30 117M44 117L45 118L44 117M66 117L67 118L66 117M181 117L182 118L181 117M9 118L9 122C9.71021 120.241 9.71021 119.759 9 118M18 118L19 119L18 118M40 118L41 119L40 118M67 118L68 119L67 118M104.333 118.667C104.278 118.722 104.222 119.778 104.667 119.333C104.722 119.278 104.778 118.222 104.333 118.667M109 118L110 119L109 118M146 118L147 119L146 118M28 119L31 131C29.1533 130.79 27.8566 130.806 26 131C27.769 131.779 29.0359 131.912 31 132C31.4382 134.743 31.7791 136.325 34 138C32.5586 132.429 32.6249 122.736 28 119M171 119L172 120L171 119z"/>
<path style="fill:#4f4a4f; stroke:none;" d="M169 120C171.044 120.774 171.845 120.592 174 120C172.154 119.532 170.931 119.699 169 120z"/>
<path style="fill:#d66c46; stroke:none;" d="M173 120C174.809 120.574 175.069 120.465 177 120C175.191 119.426 174.931 119.535 173 120M39.3333 120.667C39.2778 120.722 39.2222 121.778 39.6667 121.333C39.7223 121.278 39.7778 120.222 39.3333 120.667M106.333 120.667C106.278 120.722 106.222 121.778 106.667 121.333C106.722 121.278 106.778 120.222 106.333 120.667M152 120L153 121L152 120M159 120L159 124C159.71 122.241 159.71 121.759 159 120z"/>
<path style="fill:#e7dfd9; stroke:none;" d="M17 121C16.7926 146.059 0.00271698 167.384 0 192L2 192C2.3568 176.752 11.384 160.431 16 146L18 146C18.7191 148.598 19.9375 151.265 19.8611 154C19.5072 166.679 11.8168 176.248 22.1312 187.556C24.2309 189.858 26.0482 191.159 29 192C26.4138 185.451 19.7619 181.491 19.1088 174C18.4908 166.912 22.8684 160.912 23.2515 154C23.5282 149.009 19.6902 144.959 19.5139 140C19.4121 137.136 21.0783 134.776 21.3171 132C21.6415 128.23 19.1877 123.891 17 121z"/>
<path style="fill:#d66c46; stroke:none;" d="M20 121L21 122L20 121z"/>
<path style="fill:#e7dfd9; stroke:none;" d="M134 121L135 122L134 121z"/>
<path style="fill:#d66c46; stroke:none;" d="M151 121L152 122L151 121z"/>
<path style="fill:#4f4a4f; stroke:none;" d="M167.667 121.333C167.222 121.778 168.278 121.722 168.333 121.667C168.778 121.222 167.722 121.278 167.667 121.333z"/>
<path style="fill:#e7dfd9; stroke:none;" d="M170 121.653C159.634 124.886 158.419 136.779 157.286 146C156.95 148.739 155.878 155.021 158.603 156.883C160.868 158.429 165.629 156.924 168 156.215C176.375 153.708 183.174 146.943 183.907 138C184.63 129.173 181.035 118.211 170 121.653z"/>
<path style="fill:#d66c46; stroke:none;" d="M178 121L179 122L178 121M18 122L19 123L18 122M70 122L71 123L70 122M143 122L144 123L143 122M38 123L38 127C38.7102 125.241 38.7102 124.759 38 123M151 124C150.513 130.116 148.28 135.882 148 142C150.593 137.228 153.121 129.2 151 124M181 124L182 125L181 124M183 124L184 125L183 124M19 125L20 126L19 125M70 125C70.5451 126.635 70.3648 126.455 72 127L72 125L70 125M163 125L164 126L163 125M44 126L44 130C44.7102 128.241 44.7102 127.759 44 126M147 126L148 127L147 126M182 126L183 127L182 126M184 126L185 127L184 126M69 127L70 128L69 127M37 128L38 129L37 128M66.6667 128.333C66.2222 128.778 67.2778 128.722 67.3333 128.667C67.7778 128.222 66.7222 128.278 66.6667 128.333M183 128L184 129L183 128M70 129L70 132C70.6961 130.446 70.6961 130.554 70 129M185.333 129.667C185.278 129.722 185.222 130.778 185.667 130.333C185.722 130.278 185.778 129.222 185.333 129.667M38 130L39 131L38 130M159 130C156.329 138.791 155.025 148.808 155 158C157.347 154.901 156.804 151.76 157.17 148C157.713 142.409 161.078 135.327 159 130M39 131C39.5451 132.635 39.3648 132.455 41 133L41 131L39 131M24 132L25 133L24 132z"/>
<path style="fill:#e7dfd9; stroke:none;" d="M36 158C35.9744 148.734 33.0531 140.875 31 132C12.9996 132.436 24.1383 155.607 36 158z"/>
<path style="fill:#d66c46; stroke:none;" d="M184 132L184 137C184.83 134.97 184.83 134.03 184 132M45 133L46 134L45 133M143 133L142 135L144 135C144 133.147 144.3 133.65 143 133z"/>
<path style="fill:#4f4a4f; stroke:none;" d="M170 135C171.58 134.316 171.777 134.195 173 133C171.42 133.684 171.223 133.805 170 135z"/>
<path style="fill:#d66c46; stroke:none;" d="M9 134L9 139C9.82989 136.97 9.82989 136.03 9 134M20 134L21 135L20 134M22 134L23 135L22 134M114 134L115 135L114 134M169.333 134.667C169.278 134.722 169.222 135.778 169.667 135.333C169.722 135.278 169.778 134.222 169.333 134.667M189 134L189 137C189.696 135.446 189.696 135.554 189 134M15.3333 135.667C15.2778 135.722 15.2222 136.778 15.6667 136.333C15.7222 136.278 15.7778 135.222 15.3333 135.667z"/>
<path style="fill:#4f4a4f; stroke:none;" d="M142 135C140.988 137.373 140.378 139.449 140 142C141.836 139.692 142.797 137.889 142 135z"/>
<path style="fill:#d66c46; stroke:none;" d="M166 135L167 136L166 135z"/>
<path style="fill:#4f4a4f; stroke:none;" d="M167.667 135.333C167.222 135.778 168.278 135.722 168.333 135.667C168.778 135.222 167.722 135.278 167.667 135.333z"/>
<path style="fill:#d66c46; stroke:none;" d="M21 136L22 137L21 136z"/>
<path style="fill:#4f4a4f; stroke:none;" d="M160 139C162.603 139.258 164.581 138.067 167 137C164.31 136.595 162.444 137.775 160 139z"/>
<path style="fill:#d66c46; stroke:none;" d="M19 137L19 142C19.8299 139.97 19.8299 139.03 19 137M70 137L70 140C70.6961 138.446 70.6961 138.554 70 137M165 137L166 138L165 137M169 137L169 141L171 141L171 137L169 137z"/>
<path style="fill:#4f4a4f; stroke:none;" d="M33.3333 138.667C33.2778 138.722 33.2222 139.778 33.6667 139.333C33.7222 139.278 33.7778 138.222 33.3333 138.667z"/>
<path style="fill:#d66c46; stroke:none;" d="M161 138L162 139L161 138M163 138L164 139L163 138M14.3333 139.667C14.2778 139.722 14.2222 140.778 14.6667 140.333C14.7222 140.278 14.7778 139.222 14.3333 139.667M47 139L48 140L47 139M188 139L188 142C188.696 140.446 188.696 140.554 188 139M33.6667 140.333C33.2222 140.778 34.2778 140.722 34.3333 140.667C34.7778 140.222 33.7222 140.278 33.6667 140.333M159.667 140.333C159.222 140.778 160.278 140.722 160.333 140.667C160.778 140.222 159.722 140.278 159.667 140.333M185 140L186 141L185 140M190 140L190 143C190.696 141.446 190.696 141.554 190 140z"/>
<path style="fill:#4f4a4f; stroke:none;" d="M34.3333 141.667C34.2778 141.722 34.2222 142.778 34.6667 142.333C34.7222 142.278 34.7778 141.222 34.3333 141.667z"/>
<path style="fill:#d66c46; stroke:none;" d="M69 141L70 142L69 141z"/>
<path style="fill:#4f4a4f; stroke:none;" d="M117 141C118.342 144.904 120.001 146.851 124 148C121.781 145.535 119.516 143.156 117 141M147 141L146 147C147.305 144.819 147.736 143.433 147 141M169 141C168.014 142.479 168 142.203 168 144C169.289 142.557 169.401 142.766 169 141z"/>
<path style="fill:#d66c46; stroke:none;" d="M183 141L184 142L183 141M21 142L22 143L21 142M35 142C35.0313 143.832 34.9205 143.559 36 145C35.7488 143.548 35.6848 143.248 35 142z"/>
<path style="fill:#4f4a4f; stroke:none;" d="M49 142C50.2198 145.555 51.6238 147.338 55 149C53.2535 146.303 51.6572 143.807 49 142M139 142L140 143L139 142z"/>
<path style="fill:#d66c46; stroke:none;" d="M68 143L69 144L68 143M184 143L185 144L184 143M49 144L50 145L49 144M147 144L148 145L147 144M164 145C165.506 145.683 166.315 145.826 168 146C166.276 144.944 166.079 144.964 164 145z"/>
<path style="fill:#4f4a4f; stroke:none;" d="M167 144L168 145L167 144z"/>
<path style="fill:#d66c46; stroke:none;" d="M8.33333 145.667C8.27777 145.722 8.22223 146.778 8.66667 146.333C8.72221 146.278 8.77778 145.222 8.33333 145.667M22 145L23 146L22 145z"/>
<path style="fill:#4f4a4f; stroke:none;" d="M35.3333 145.667C35.2778 145.722 35.2222 146.778 35.6667 146.333C35.7222 146.278 35.7778 145.222 35.3333 145.667z"/>
<path style="fill:#d66c46; stroke:none;" d="M44 145C44 147.854 42.3142 146.67 40 146C41.5398 147.803 42.5975 147.832 45 148L43 149C44.5061 149.683 45.3148 149.826 47 150C46.4535 147.422 46.1699 146.444 44 145z"/>
<path style="fill:#4f4a4f; stroke:none;" d="M66 145L67 146L66 145z"/>
<path style="fill:#d66c46; stroke:none;" d="M134 147L137 146C135.222 145.045 134.979 145.234 134 147M140 148L143 146C141.007 145.301 140.847 146.006 140 148M191 145L192 146L191 145M16 146C12.9429 153.095 10.682 160.695 8.13889 168C5.44012 175.752 2.074 183.723 2 192L26 192C22.2497 185.937 16.8601 181.63 16.3789 174C15.724 163.619 22.1501 156.256 18 146L16 146M36 146L35 150C36.303 148.332 36.553 148.008 36 146z"/>
<path style="fill:#4f4a4f; stroke:none;" d="M41 146C42.5061 146.683 43.3148 146.826 45 147C43.494 146.317 42.6852 146.174 41 146z"/>
<path style="fill:#d66c46; stroke:none;" d="M57 150C61.0749 151.201 64.3535 149.03 67 146L57 150z"/>
<path style="fill:#4f4a4f; stroke:none;" d="M130 147C131.809 147.574 132.069 147.465 134 147C132.341 146.594 131.758 146.691 130 147z"/>
<path style="fill:#d66c46; stroke:none;" d="M145 146C144.474 149.153 143.599 151.826 144 155C145.631 151.994 146.683 149.066 145 146M12 147L13 148L12 147M21 147L22 148L21 147M124 147L123 149L125 149C125 147.147 125.3 147.65 124 147z"/>
<path style="fill:#4f4a4f; stroke:none;" d="M125 147L125 149L129 149L129 147L125 147z"/>
<path style="fill:#d66c46; stroke:none;" d="M129 147L129 149L131 149C130.455 147.365 130.635 147.545 129 147M180 147L181 148L180 147M182 147L183 148L182 147z"/>
<path style="fill:#4f4a4f; stroke:none;" d="M44 148L45 149L44 148z"/>
<path style="fill:#d66c46; stroke:none;" d="M48 148L48 150L50 150L50 148L48 148M137.333 148.667C137.278 148.722 137.222 149.778 137.667 149.333C137.722 149.278 137.778 148.222 137.333 148.667M186 148C178.871 156.092 172.554 160.01 162 162C164.501 172.778 171.878 181.098 174 192L192 192C192 180.451 191.893 170.225 189.236 159C188.338 155.207 188.03 151.366 186 148M7 149C6.37547 152.363 6.02833 155.578 6 159C8.42131 155.745 9.48847 152.421 7 149M22 149L23 150L22 149M24 149L25 150L24 149z"/>
<path style="fill:#4f4a4f; stroke:none;" d="M55 149C56.769 149.779 58.0359 149.912 60 150C58.231 149.221 56.9641 149.088 55 149z"/>
<path style="fill:#d66c46; stroke:none;" d="M11 150L12 151L11 150M190 150L191 151L190 150M175 152L176 153L175 152M23.3333 153.667C23.2778 153.722 23.2222 154.778 23.6667 154.333C23.7222 154.278 23.7778 153.222 23.3333 153.667M25 153C23.9515 160.1 22.3069 166.74 22 174L24 174C24.1174 171.27 24.4992 168.686 25 166C26.4782 168.943 27.3264 171.777 28 175C29.5719 169.89 28.4999 160.684 26 156L28 156C26.8966 154.543 26.4566 154.103 25 153M27 153L28 154L27 153z"/>
<path style="fill:#4f4a4f; stroke:none;" d="M143 154L143 157C143.696 155.446 143.696 155.554 143 154z"/>
<path style="fill:#d66c46; stroke:none;" d="M172 154L173 155L172 154M142 156L143 160C143.553 157.992 143.303 157.668 142 156M167 156L168 157L167 156M157 157L158 158L157 157M161 157C162.248 157.685 162.548 157.749 164 158C162.752 157.315 162.452 157.251 161 157M169 157L170 158L169 157z"/>
<path style="fill:#4f4a4f; stroke:none;" d="M142 158L142 164C142.951 161.715 142.951 160.285 142 158z"/>
<path style="fill:#d66c46; stroke:none;" d="M37 160L38 161L37 160M21 161L22 162L21 161M147.333 161.667C147.278 161.722 147.222 162.778 147.667 162.333C147.722 162.278 147.778 161.222 147.333 161.667M158.333 161.667C158.278 161.722 158.222 162.778 158.667 162.333C158.722 162.278 158.778 161.222 158.333 161.667M38 162L39 163L38 162M80 166C81.1954 165.402 80.9774 165.534 82 164L83 168L81 167C82.7173 168.84 83.5656 169.349 86 170C84.3475 159.963 97.5839 162.341 103 166C101.814 167.186 101.472 167.584 101 169C103.687 167.676 104.676 166.687 106 164C104.685 164.113 101.326 164.267 104 163C98.1837 160.559 83.5812 160.146 80 166M141 162L142 168C142.889 165.492 142.495 164.185 141 162z"/>
<path style="fill:#e7dfd9; stroke:none;" d="M102 163C102.545 164.635 102.365 164.455 104 165L104 163L102 163z"/>
<path style="fill:#4f4a4f; stroke:none;" d="M104 163L105 164L104 163M147 163C145.096 170.999 146.164 178.39 149 186C144.559 179.707 143.752 173.273 142 166C130.422 173.138 117.69 179.155 104 181C106.239 181.811 107.647 181.529 110 181L110 185C112.117 184.381 113.802 184.065 116 184C114.268 187.042 113.03 189.194 110 191C112.908 191.801 114.042 190.749 115 188C120.127 188.121 123.45 189.97 128 192C124.633 187.752 121.256 187.048 116 187C116.616 182.975 114.799 182.295 111 182C120.815 176.828 131.974 175.862 141 169C142.158 177.602 145.033 187.39 153 192C150.962 185.925 148.31 180.33 147 174C150.875 180.618 152.464 187.285 159 192C156.95 187.394 153.445 183.682 151.465 179C149.273 173.818 149.119 168.003 147 163z"/>
<path style="fill:#d66c46; stroke:none;" d="M4 164L5 165L4 164M6 164L7 165L6 164M20 164L21 165L20 164z"/>
<path style="fill:#e7dfd9; stroke:none;" d="M22 164C20.7218 170.885 20.502 176.755 24 183C25.2239 179.02 23.1519 175.759 22.625 171.83C22.2496 169.031 23.0442 166.674 22 164M37 164C36.3344 172.435 33.0989 190.063 45 192C41.1854 184.824 39.0227 179.223 39 171C49.54 177.884 61.1821 183.882 74 185L68 192C73.5698 191.61 77.4193 187.606 83 187C80.8783 181.722 73.9365 182.501 69 180.975C62.3878 178.93 54.956 177.116 49 173.521C44.5959 170.863 41.1842 166.945 37 164z"/>
<path style="fill:#4f4a4f; stroke:none;" d="M81 164L82 168C82.393 166.076 82.1456 165.64 81 164z"/>
<path style="fill:#d66c46; stroke:none;" d="M157 164L158 165L157 164M159 165L160 166L159 165z"/>
<path style="fill:#e7dfd9; stroke:none;" d="M25 166C25.2073 176.041 24.9461 191.576 38 192L33 184C32.5897 186.14 33.0315 186.962 34 189C27.7721 182.765 29.9581 172.95 25 166z"/>
<path style="fill:#d66c46; stroke:none;" d="M36 166L36 169C36.6961 167.446 36.6961 167.554 36 166M158 167L159 168L158 167z"/>
<path style="fill:#4f4a4f; stroke:none;" d="M83 168L84 169L83 168z"/>
<path style="fill:#d66c46; stroke:none;" d="M138 168L139 169L138 168M148 168L148 171C148.696 169.446 148.696 169.554 148 168M45 169L46 170L45 169z"/>
<path style="fill:#e7dfd9; stroke:none;" d="M140 169C131.859 175.689 120.978 178.168 111 181C113.052 181.874 114.747 181.953 117 182L117 187C123.194 187.184 127.067 191.55 133 192C129.588 187.272 125.764 184.868 120 184L120 181C126.534 180.102 133.548 177.711 139 174C139.988 180.685 143.558 190.741 151 192C149.004 187.799 145.829 184.289 143.904 180C142.295 176.416 141.846 172.446 140 169z"/>
<path style="fill:#d66c46; stroke:none;" d="M39 171C39.0041 177.216 38.9289 184.878 43.6134 189.682C46.3583 192.497 50.3949 191.998 54 192C62.0152 192.004 69.4617 192.891 74 185C60.7068 183.044 50.8395 176.244 39 171M45 171L46 172L45 171M48 171L49 172L48 171M137 171L138 172L137 171M3 172L4 173L3 172M25 172L25 178C25.9511 175.715 25.9511 174.285 25 172M141 172L142 173L141 172M48 173L49 174L48 173M129 173L130 174L129 173M143.333 173.667C143.278 173.722 143.222 174.778 143.667 174.333C143.722 174.278 143.778 173.222 143.333 173.667M149 173L150 174L149 173M50 174L51 175L50 174M54 174L55 175L54 174M126 174L127 175L126 174M131 174L132 175L131 174M138 174C132.741 177.581 126.209 179.668 120 181L120 184C125.594 185.345 128.852 189.527 134 191.397C137.863 192.801 142.942 192 147 192C144.838 186.103 141.341 179.308 138 174M147 174C147.406 176.092 147.217 176.02 149 177C148.316 175.42 148.195 175.223 147 174M0 175L1 176L0 175M2 175L3 176L2 175M52 175L53 176L52 175M57 175L58 176L57 175M123 175L124 176L123 175M128 175L129 176L128 175M60 176L61 177L60 176M120 176L121 177L120 176M142 176L143 177L142 176M164 176L165 177L164 176M19 177L20 178L19 177M117 177L118 178L117 177M122 177L123 178L122 177z"/>
<path style="fill:#e7dfd9; stroke:none;" d="M148 177C148.892 183.042 150.593 190.103 157 192C154.772 186.993 151.32 181.368 148 177z"/>
<path style="fill:#d66c46; stroke:none;" d="M163 177L164 178L163 177M1 178L2 179L1 178M66 178L67 179L66 178M114 178L115 179L114 178M119 178L120 179L119 178M146 178L147 179L146 178M29 179C29.8322 182.978 30.4848 186.67 34 189C32.7743 185.043 32.1525 181.823 29 179M69 179L70 180L69 179M111 179L112 180L111 179M116 179L117 180L116 179M166 179L167 180L166 179M22 180L23 181L22 180M67 180L68 181L67 180M73 180C74.2484 180.685 74.5484 180.749 76 181C74.7516 180.315 74.4516 180.251 73 180M105 180C106.248 180.685 106.548 180.749 108 181C106.752 180.315 106.452 180.251 105 180M145 180L146 181L145 180M148 180L149 181L148 180M165 180L166 181L165 180M36.3333 181.667C36.2778 181.722 36.2222 182.778 36.6667 182.333C36.7222 182.278 36.7778 181.222 36.3333 181.667M70 181L71 182L70 181M82 181L83 182L82 181M101 181C102.223 182.195 102.42 182.316 104 183C103.02 181.217 103.092 181.406 101 181z"/>
<path style="fill:#e7dfd9; stroke:none;" d="M86 187C87.6058 188.914 88.7833 189.837 91 191L90 188C93.7285 189.784 98.0891 191.947 102 190C100.752 189.315 100.452 189.251 99 189C101.478 188.535 101.99 188.526 104 190C108.696 188.913 112.775 187.693 116 184C113.53 183.772 112.34 184.075 110 185L110 181C102.033 182.54 92.2671 182.822 86 187z"/>
<path style="fill:#d66c46; stroke:none;" d="M150 181L151 182L150 181M74 182C75.2484 182.685 75.5484 182.749 77 183C75.7517 182.315 75.4516 182.251 74 182M89 183C91.8897 184.213 94.8741 183.998 98 184C95.0277 181.759 92.5402 182.168 89 183z"/>
<path style="fill:#4f4a4f; stroke:none;" d="M97 182C98.769 182.779 100.036 182.912 102 183C100.231 182.221 98.9641 182.088 97 182z"/>
<path style="fill:#d66c46; stroke:none;" d="M116 182L117 183L116 182M146.667 182.333C146.222 182.778 147.278 182.722 147.333 182.667C147.778 182.222 146.722 182.278 146.667 182.333M166 182L167 183L166 182M24.6667 183.333C24.2222 183.778 25.2778 183.722 25.3333 183.667C25.7778 183.222 24.7222 183.278 24.6667 183.333z"/>
<path style="fill:#e7dfd9; stroke:none;" d="M147 183L148 184L147 183z"/>
<path style="fill:#d66c46; stroke:none;" d="M149 183L150 184L149 183M151 183L152 184L151 183M23 184L24 185L23 184M84 184L85 185L84 184M87 184L88 185L87 184M111 184L112 185L111 184M147 184C147.545 185.635 147.365 185.455 149 186L149 184L147 184M167 184L168 185L167 184M24 185L25 186L24 185M37 185L38 186L37 185z"/>
<path style="fill:#e7dfd9; stroke:none;" d="M84 185L85 186L84 185z"/>
<path style="fill:#d66c46; stroke:none;" d="M104 187C106.814 187.912 107.983 187.074 110 185C107.854 185.504 106.021 186.119 104 187M169 185L170 186L169 185M84 186C85.7238 187.055 85.9207 187.036 88 187C86.494 186.317 85.6852 186.174 84 186M114 186L115 187L114 186M116 186L117 187L116 186M28 187L29 188L28 187M38 187L39 188L38 187M88.6667 187.333C88.2222 187.778 89.2778 187.722 89.3333 187.667C89.7778 187.222 88.7222 187.278 88.6667 187.333M112 187C112 190.242 107.858 190.474 105 191C107.825 192.31 116.419 190.227 112 187M123 187L124 188L123 187M168 187L169 188L168 187M79 188C80.2484 188.685 80.5484 188.749 82 189C80.7516 188.315 80.4516 188.251 79 188M84 188C85.3622 192.104 88.1258 191.701 92 192L91 188C90.5206 189.498 90.5999 189.35 91 191C89.3161 190.776 88.6865 190.782 87 191C88.2767 189.085 88.2767 189.915 87 188L84 188M99 188C100.612 189.314 102.085 190.187 104 191C103.346 187.946 101.993 188.064 99 188M109 188L110 189L109 188z"/>
<path style="fill:#4f4a4f; stroke:none;" d="M99 191C103.639 192.891 108.479 190.471 113 189C108.601 187.699 103.572 190.601 99 191z"/>
<path style="fill:#d66c46; stroke:none;" d="M115 188C117.332 188.985 119.457 188.981 122 189C119.668 188.015 117.543 188.019 115 188M148 188L149 189L148 188M151 188L152 189L151 188M161 188C161.776 190.132 162.13 190.771 164 192C163.064 190.051 162.608 189.45 161 188M170 188L171 189L170 188M39 189L40 190L39 189M77 189L78 190L77 189z"/>
<path style="fill:#e7dfd9; stroke:none;" d="M75 191C78.1633 192.327 81.5856 192 85 192C81.7555 188.7 79.0268 189.076 75 191z"/>
<path style="fill:#d66c46; stroke:none;" d="M93 189C94.2483 189.685 94.5484 189.749 96 190C94.7516 189.315 94.4516 189.251 93 189M98 189L99 190L98 189M106 189L107 190L106 189z"/>
<path style="fill:#e7dfd9; stroke:none;" d="M113 191C116.959 192.661 121.737 192 126 192C122.193 188.112 117.605 188.604 113 191z"/>
<path style="fill:#d66c46; stroke:none;" d="M126 189L127 190L126 189M73 190L74 191L73 190z"/>
<path style="fill:#4f4a4f; stroke:none;" d="M87.6667 190.333C87.2222 190.778 88.2778 190.722 88.3333 190.667C88.7778 190.222 87.7222 190.278 87.6667 190.333M92 190L92 192C93.6351 191.455 93.4549 191.635 94 190L92 190z"/>
<path style="fill:#e7dfd9; stroke:none;" d="M93 192L96 192L95 190C93.3648 190.545 93.5451 190.365 93 192z"/>
<path style="fill:#4f4a4f; stroke:none;" d="M95 190C96.2228 191.195 96.42 191.316 98 192C96.7772 190.805 96.58 190.684 95 190z"/>
<path style="fill:#d66c46; stroke:none;" d="M125 190L126 191L125 190M127 190L128 191L127 190M29 191L30 192L29 191M38 191L39 192L38 191z"/>
<path style="fill:#4f4a4f; stroke:none;" d="M89 191L90 192L89 191z"/>
<path style="fill:#d66c46; stroke:none;" d="M153 191L154 192L153 191M157 191L158 192L157 191M159 191L160 192L159 191z"/>
</svg>
