<?xml version="1.0" standalone="yes"?>
<svg xmlns="http://www.w3.org/2000/svg" width="204" height="204">
<path style="fill:#fafafa; stroke:none;" d="M0 0L0 204L204 204L204 0L0 0z"/>
<path style="fill:#dddddb; stroke:none;" d="M95 7C96.2484 7.68481 96.5484 7.74878 98 8C96.7517 7.31523 96.4515 7.25119 95 7z"/>
<path style="fill:#636262; stroke:none;" d="M98.6667 7.33333C98.2222 7.77783 99.2778 7.72223 99.3333 7.66667C99.7778 7.22223 98.7222 7.27779 98.6667 7.33333z"/>
<path style="fill:#373537; stroke:none;" d="M100 7C101.506 7.68303 102.315 7.8259 104 8C102.494 7.31697 101.685 7.1741 100 7z"/>
<path style="fill:#747376; stroke:none;" d="M104 7L105 8L104 7z"/>
<path style="fill:#b0b2af; stroke:none;" d="M105 7L106 8L105 7z"/>
<path style="fill:#dededd; stroke:none;" d="M106.667 7.33333C106.222 7.77783 107.278 7.72224 107.333 7.66667C107.778 7.22224 106.722 7.27777 106.667 7.33333z"/>
<path style="fill:#c0c0c0; stroke:none;" d="M87 8L88 9L87 8z"/>
<path style="fill:#000000; stroke:none;" d="M88 8.42824C75.2567 10.2539 62.9288 14.6087 52 21.4252C41.3537 28.0654 32.1631 36.6634 25.0255 47C18.3089 56.7268 13.3827 67.4667 10.6543 79C0.218287 123.116 23.6445 170.389 66 187.547C81.8533 193.969 99.1297 195.909 116 193.711C127.194 192.252 138.125 188.195 148 182.822C158.105 177.324 167.086 169.9 174.384 161C207.092 121.113 201.821 59.9679 161 27.5147C151.483 19.9486 140.626 14.7169 129 11.294C116.193 7.52322 101.26 6.52855 88 8.42824z"/>
<path style="fill:#cdcdce; stroke:none;" d="M77 10L78 11L77 10z"/>
<path style="fill:#2e2e2e; stroke:none;" d="M129 11L130 12L129 11z"/>
<path style="fill:#414143; stroke:none;" d="M68 13L69 14L68 13z"/>
<path style="fill:#3f3f3f; stroke:none;" d="M90 13L91 14L90 13z"/>
<path style="fill:#fafafa; stroke:none;" d="M57 177C60.7907 163.842 70.2742 155.148 83 151C79.5925 149.362 75.6685 148.949 72 148C72 149.797 72.0143 149.521 73 151C65.3369 152.761 59.5742 149.605 53 146C50.7879 148.884 48.4846 147.165 46.0432 144.887C41.8264 140.951 39.5569 135.793 40.1883 130C40.9372 123.128 46.7678 116.634 46.8642 110C46.9096 106.878 44.6815 103.915 43.7747 101C41.9858 95.2494 41.8622 89.8349 43.2361 84C45.2245 75.5556 51.703 69.0646 53.7114 61C56.2953 50.6245 54.6224 37.3261 60.9799 28.1235C63.8859 23.917 67.3386 25.353 71.0039 27.7616C76.778 31.5559 81.6415 39.2578 88 41.6867C90.6923 42.7152 94.175 42.0131 97 42.0008C102.105 41.9784 106.945 42.2357 112 42.9043C123.84 44.4704 130.324 29.0551 141.995 27.7608C147.342 27.1679 148.561 32.9445 149.245 37C150.849 46.5083 150.758 57.5285 149 67C152.689 65.9935 157.257 63.2619 160.891 65.6435C168.705 70.7638 168.37 89.2894 159 92C160.632 96.7461 159.673 101.19 160.67 106C162.446 114.566 168.131 123.103 164.867 132C161.763 140.458 150.176 150.497 141 146C133.379 149.993 127.536 151 119 151C122.738 153.352 127.191 154.169 130.999 156.479C138.675 161.135 142.985 169.498 145 178C154.869 173.742 163.299 166.221 170.076 158C194.412 128.481 197.46 86.7119 177.536 54C163.025 30.1744 137.433 15.791 110 13.1698C83.8827 10.6743 56.5198 20.1725 38.1698 39.0895C7.80605 70.3913 4.59668 123.462 33.3002 157C40.0852 164.928 47.872 171.918 57 177z"/>
<path style="fill:#aeaeaf; stroke:none;" d="M112 13L113 14L112 13z"/>
<path style="fill:#3f3f3f; stroke:none;" d="M113 13L114 14L113 13z"/>
<path style="fill:#48494a; stroke:none;" d="M135 13L136 14L135 13z"/>
<path style="fill:#cecfce; stroke:none;" d="M65 14L66 15L65 14z"/>
<path style="fill:#717273; stroke:none;" d="M84 14L85 15L84 14z"/>
<path style="fill:#4a4a4a; stroke:none;" d="M119 14L120 15L119 14z"/>
<path style="fill:#c9cac9; stroke:none;" d="M138 14L139 15L138 14z"/>
<path style="fill:#828284; stroke:none;" d="M63 15L64 16L63 15z"/>
<path style="fill:#393938; stroke:none;" d="M79 15L80 16L79 15z"/>
<path style="fill:#343434; stroke:none;" d="M124 15L125 16L124 15z"/>
<path style="fill:#5f5f5f; stroke:none;" d="M140 15L141 16L140 15z"/>
<path style="fill:#727373; stroke:none;" d="M55 19L56 20L55 19z"/>
<path style="fill:#4b4b4c; stroke:none;" d="M67 19L68 20L67 19z"/>
<path style="fill:#5d5d5d; stroke:none;" d="M136 19L137 20L136 19z"/>
<path style="fill:#cac9c9; stroke:none;" d="M53 20L54 21L53 20z"/>
<path style="fill:#929291; stroke:none;" d="M65 20L66 21L65 20z"/>
<path style="fill:#c0c0c0; stroke:none;" d="M138 20L139 21L138 20z"/>
<path style="fill:#999999; stroke:none;" d="M150 20L151 21L150 20z"/>
<path style="fill:#8a8a8b; stroke:none;" d="M50 22L51 23L50 22z"/>
<path style="fill:#c0bfbf; stroke:none;" d="M59 23L60 24L59 23z"/>
<path style="fill:#999a98; stroke:none;" d="M47 24L48 25L47 24z"/>
<path style="fill:#777877; stroke:none;" d="M57 24L58 25L57 24z"/>
<path style="fill:#8e8f8e; stroke:none;" d="M64 24L65 25L64 24z"/>
<path style="fill:#aeaeae; stroke:none;" d="M146 24L147 25L146 24z"/>
<path style="fill:#3c3c3d; stroke:none;" d="M156 24L157 25L156 24z"/>
<path style="fill:#777777; stroke:none;" d="M67 25L68 26L67 25z"/>
<path style="fill:#464546; stroke:none;" d="M148 25L149 26L148 25z"/>
<path style="fill:#a6a5a5; stroke:none;" d="M69 26L70 27L69 26z"/>
<path style="fill:#adaeae; stroke:none;" d="M159 26L160 27L159 26z"/>
<path style="fill:#969697; stroke:none;" d="M43 27L44 28L43 27z"/>
<path style="fill:#737373; stroke:none;" d="M141 27L142 28L141 27z"/>
<path style="fill:#848385; stroke:none;" d="M151 27L152 28L151 27z"/>
<path style="fill:#a1a1a1; stroke:none;" d="M72 28L73 29L72 28z"/>
<path style="fill:#c9caca; stroke:none;" d="M136 29L137 30L136 29z"/>
<path style="fill:#5f605f; stroke:none;" d="M154 29L155 30L154 29z"/>
<path style="fill:#8d8d8e; stroke:none;" d="M48 30L49 31L48 30z"/>
<path style="fill:#8b8c8c; stroke:none;" d="M59 30L60 31L59 30z"/>
<path style="fill:#4d4d4e; stroke:none;" d="M64 30L65 31L64 30z"/>
<path style="fill:#fafafa; stroke:none;" d="M65 30C61.0407 37.8786 59.6887 47.2737 59 56C66.8553 52.0923 73.5523 46.8765 82 44C77.7338 37.9443 71.9881 32.6495 65 30z"/>
<path style="fill:#7c7d7c; stroke:none;" d="M68 31L69 32L68 31z"/>
<path style="fill:#bababa; stroke:none;" d="M76 31L77 32L76 31z"/>
<path style="fill:#c2c2c1; stroke:none;" d="M165 31L166 32L165 31z"/>
<path style="fill:#424242; stroke:none;" d="M77 32L78 33L77 32z"/>
<path style="fill:#403f3f; stroke:none;" d="M131 32L132 33L131 32z"/>
<path style="fill:#898988; stroke:none;" d="M141 32L142 33L141 32z"/>
<path style="fill:#fafafa; stroke:none;" d="M53 110C55.6202 104.163 55.5091 97.1244 57.6983 91C61.1461 81.3544 68.2123 72.5381 75 65C75.4267 75.969 68.8019 86.7433 79.0895 95.6065C80.8781 97.1474 82.8689 98.062 85 99C86.3346 90.7277 93.6226 97.0408 99 98C99 88.6413 97.5058 71.4024 107 66C107.669 73.6639 111.083 82.928 117 88C116.524 81.9833 111.492 68.7083 119.109 65.3526C124.513 62.9716 130.054 68.6964 135 69.7994C138.305 70.5364 141.817 68.7519 145 68C145 55.9184 144.949 44.0205 144 32C137.642 33.6028 132.123 37.1979 127 41.2114C124.05 43.5221 120.786 47.289 117 48.1003C114.125 48.7165 110.887 47.3017 108 47.0903C100.505 46.5413 92.3306 46.5124 85 48.2361C63.9566 53.1844 44.3219 73.0705 47.1852 96C47.8248 101.122 50.645 105.523 53 110z"/>
<path style="fill:#8f8f8e; stroke:none;" d="M166 32L167 33L166 32z"/>
<path style="fill:#c3c4c3; stroke:none;" d="M58 33L59 34L58 33z"/>
<path style="fill:#4e4d4d; stroke:none;" d="M71 33L72 34L71 33z"/>
<path style="fill:#8f8f90; stroke:none;" d="M159 33L160 34L159 33z"/>
<path style="fill:#858484; stroke:none;" d="M167 33L168 34L167 33z"/>
<path style="fill:#7a7979; stroke:none;" d="M43 34L44 35L43 34z"/>
<path style="fill:#434344; stroke:none;" d="M128 34L129 35L128 34z"/>
<path style="fill:#cccccb; stroke:none;" d="M137 34L138 35L137 34z"/>
<path style="fill:#7f7f7f; stroke:none;" d="M168 34L169 35L168 34z"/>
<path style="fill:#babbbb; stroke:none;" d="M42 35L43 36L42 35z"/>
<path style="fill:#969798; stroke:none;" d="M135 35L136 36L135 35z"/>
<path style="fill:#838382; stroke:none;" d="M169 35L170 36L169 35z"/>
<path style="fill:#a8a7a7; stroke:none;" d="M62 36L63 37L62 36z"/>
<path style="fill:#676769; stroke:none;" d="M144 36L145 37L144 36z"/>
<path style="fill:#878887; stroke:none;" d="M170 36L171 37L170 36z"/>
<path style="fill:#717473; stroke:none;" d="M57 37L58 38L57 37z"/>
<path style="fill:#474847; stroke:none;" d="M124 37L125 38L124 37z"/>
<path style="fill:#c0c0c0; stroke:none;" d="M171 37L172 38L171 37z"/>
<path style="fill:#636261; stroke:none;" d="M77 38L78 39L77 38z"/>
<path style="fill:#747574; stroke:none;" d="M149 38L150 39L149 38z"/>
<path style="fill:#919191; stroke:none;" d="M78 39L79 40L78 39z"/>
<path style="fill:#abacab; stroke:none;" d="M129 39L130 40L129 39z"/>
<path style="fill:#b2b3b0; stroke:none;" d="M79 40L80 41L79 40z"/>
<path style="fill:#c0bfbf; stroke:none;" d="M80 41L81 42L80 41z"/>
<path style="fill:#8d8d8e; stroke:none;" d="M28 42L29 43L28 42z"/>
<path style="fill:#a8aaaa; stroke:none;" d="M35 42L36 43L35 42z"/>
<path style="fill:#aeadad; stroke:none;" d="M81 42L82 43L81 42z"/>
<path style="fill:#818182; stroke:none;" d="M89 42L90 43L89 42z"/>
<path style="fill:#2f302f; stroke:none;" d="M109 42L110 43L109 42z"/>
<path style="fill:#464646; stroke:none;" d="M125 42L126 43L125 42z"/>
<path style="fill:#666666; stroke:none;" d="M34 43L35 44L34 43z"/>
<path style="fill:#5c5b5c; stroke:none;" d="M82 43L83 44L82 43z"/>
<path style="fill:#c9cbca; stroke:none;" d="M115 43L116 44L115 43z"/>
<path style="fill:#c8c8c8; stroke:none;" d="M117 43L118 44L117 43z"/>
<path style="fill:#989899; stroke:none;" d="M124 43L125 44L124 43z"/>
<path style="fill:#a1a1a0; stroke:none;" d="M176 43L177 44L176 43z"/>
<path style="fill:#2e2e2e; stroke:none;" d="M60 44L61 45L60 44z"/>
<path style="fill:#c3c3c3; stroke:none;" d="M80 44L81 45L80 44z"/>
<path style="fill:#8e8e8e; stroke:none;" d="M170 44L171 45L170 44z"/>
<path style="fill:#9c9b9e; stroke:none;" d="M77 45L78 46L77 45z"/>
<path style="fill:#2e2e2e; stroke:none;" d="M145 45L145 49C145.71 47.2405 145.71 46.7595 145 45z"/>
<path style="fill:#6a6b6a; stroke:none;" d="M25 46L26 47L25 46z"/>
<path style="fill:#2f3232; stroke:none;" d="M97 46L98 47L97 46z"/>
<path style="fill:#909090; stroke:none;" d="M98 46C99.506 46.683 100.315 46.8259 102 47C100.494 46.317 99.6852 46.1741 98 46z"/>
<path style="fill:#424345; stroke:none;" d="M102 46L103 47L102 46z"/>
<path style="fill:#a1a2a1; stroke:none;" d="M55 47L56 48L55 47z"/>
<path style="fill:#525252; stroke:none;" d="M88 47L89 48L88 47z"/>
<path style="fill:#656566; stroke:none;" d="M111 47L112 48L111 47z"/>
<path style="fill:#cdcece; stroke:none;" d="M179 47L180 48L179 47z"/>
<path style="fill:#646565; stroke:none;" d="M30 48L31 49L30 48z"/>
<path style="fill:#bbbdbc; stroke:none;" d="M115 48L116 49L115 48z"/>
<path style="fill:#c5c7c6; stroke:none;" d="M173 48L174 49L173 48z"/>
<path style="fill:#343235; stroke:none;" d="M23 49L24 50L23 49z"/>
<path style="fill:#a3a3a3; stroke:none;" d="M80 49L81 50L80 49z"/>
<path style="fill:#757574; stroke:none;" d="M145 49L145 54C145.83 51.9695 145.83 51.0305 145 49z"/>
<path style="fill:#323333; stroke:none;" d="M77 50L78 51L77 50z"/>
<path style="fill:#c2c3c3; stroke:none;" d="M181 50L182 51L181 50z"/>
<path style="fill:#919192; stroke:none;" d="M28 51L29 52L28 51z"/>
<path style="fill:#2e2e2f; stroke:none;" d="M59 51L60 52L59 51z"/>
<path style="fill:#9d9d9f; stroke:none;" d="M21 52L22 53L21 52z"/>
<path style="fill:#838282; stroke:none;" d="M26 54L27 55L26 54z"/>
<path style="fill:#2f2f2f; stroke:none;" d="M145 54L145 57C145.696 55.4463 145.696 55.5537 145 54z"/>
<path style="fill:#6a696a; stroke:none;" d="M54 55L55 56L54 55z"/>
<path style="fill:#bbbabb; stroke:none;" d="M60 55L61 56L60 55z"/>
<path style="fill:#c4c3c4; stroke:none;" d="M184 55L185 56L184 55z"/>
<path style="fill:#d0cfd0; stroke:none;" d="M65 57L66 58L65 57z"/>
<path style="fill:#666565; stroke:none;" d="M179 57L180 58L179 57z"/>
<path style="fill:#989898; stroke:none;" d="M185 57L186 58L185 57z"/>
<path style="fill:#8b8c8a; stroke:none;" d="M180 59L181 60L180 59z"/>
<path style="fill:#929292; stroke:none;" d="M186 59L187 60L186 59z"/>
<path style="fill:#3a3b3b; stroke:none;" d="M22 61L23 62L22 61z"/>
<path style="fill:#999898; stroke:none;" d="M181 61L182 62L181 61z"/>
<path style="fill:#9b9a9b; stroke:none;" d="M187 61L188 62L187 61z"/>
<path style="fill:#7e7f7f; stroke:none;" d="M182 63L183 64L182 63z"/>
<path style="fill:#373637; stroke:none;" d="M15 64L16 65L15 64z"/>
<path style="fill:#b1b1b0; stroke:none;" d="M119 64L120 65L119 64z"/>
<path style="fill:#808180; stroke:none;" d="M120 64L121 65L120 64z"/>
<path style="fill:#bebebf; stroke:none;" d="M121 64L122 65L121 64z"/>
<path style="fill:#808181; stroke:none;" d="M149 64L150 65L149 64z"/>
<path style="fill:#adaead; stroke:none;" d="M156 64L157 65L156 64z"/>
<path style="fill:#c9caca; stroke:none;" d="M160 64L161 65L160 64z"/>
<path style="fill:#b1b1af; stroke:none;" d="M51 65L52 66L51 65z"/>
<path style="fill:#818384; stroke:none;" d="M74 65L75 66L74 65z"/>
<path style="fill:#b0b0b1; stroke:none;" d="M125 65L126 66L125 65z"/>
<path style="fill:#515150; stroke:none;" d="M183 65L184 66L183 65z"/>
<path style="fill:#c8c9c9; stroke:none;" d="M14 66L15 67L14 66z"/>
<path style="fill:#3d3d3d; stroke:none;" d="M56 66L57 67L56 66z"/>
<path style="fill:#cdcdce; stroke:none;" d="M75 66L76 67L75 66z"/>
<path style="fill:#bebebd; stroke:none;" d="M104 66L105 67L104 66z"/>
<path style="fill:#c7c7c7; stroke:none;" d="M130 67L131 68L130 67z"/>
<path style="fill:#7f7e7e; stroke:none;" d="M19 68L20 69L19 68z"/>
<path style="fill:#6b6a6a; stroke:none;" d="M49 68L50 69L49 68z"/>
<path style="fill:#b2b3b2; stroke:none;" d="M71 68L72 69L71 68z"/>
<path style="fill:#b3b4b4; stroke:none;" d="M142.667 68.3333C142.222 68.7778 143.278 68.7222 143.333 68.6667C143.778 68.2222 142.722 68.2778 142.667 68.3333z"/>
<path style="fill:#6f6f6e; stroke:none;" d="M144 68L145 69L144 68z"/>
<path style="fill:#7d7d7f; stroke:none;" d="M13 69L14 70L13 69z"/>
<path style="fill:#fafafa; stroke:none;" d="M120 69C120 76.3871 120.755 82.9333 123 90C125.191 89.3492 127.087 88.6635 129.004 87.3619C130.661 86.2367 132.348 84.9116 133.681 83.409C140.94 75.2281 126.034 69.9045 120 69z"/>
<path style="fill:#aeafae; stroke:none;" d="M155 69L156 70L155 69z"/>
<path style="fill:#fafafa; stroke:none;" d="M161 87C161 84.0008 161.038 80.9988 160.996 78C160.966 75.841 161.114 73.2017 159.821 71.3326C157.78 68.3821 153.536 69.8926 151.319 71.8542C148.596 74.2632 148.595 78.8225 150.684 81.6713C151.774 83.1583 153.409 84.2063 155.001 85.0802C156.959 86.156 158.835 86.6092 161 87z"/>
<path style="fill:#555654; stroke:none;" d="M159 69L160 70L159 69z"/>
<path style="fill:#a6a7a7; stroke:none;" d="M70 70L71 71L70 70z"/>
<path style="fill:#c3c3c3; stroke:none;" d="M74 70L75 71L74 70z"/>
<path style="fill:#cdcacd; stroke:none;" d="M102 70L103 71L102 70z"/>
<path style="fill:#505050; stroke:none;" d="M119 70L119 74C119.71 72.2405 119.71 71.7595 119 70z"/>
<path style="fill:#585957; stroke:none;" d="M135 70L136 71L135 70z"/>
<path style="fill:#b7b7b7; stroke:none;" d="M137 70L138 71L137 70z"/>
<path style="fill:#555556; stroke:none;" d="M185 70L186 71L185 70z"/>
<path style="fill:#c7c7c7; stroke:none;" d="M191 71L192 72L191 71z"/>
<path style="fill:#696969; stroke:none;" d="M12 72L13 73L12 72z"/>
<path style="fill:#5a5c5c; stroke:none;" d="M52 72L53 73L52 72z"/>
<path style="fill:#454347; stroke:none;" d="M101 73L102 74L101 73z"/>
<path style="fill:#626362; stroke:none;" d="M141 73L142 74L141 73z"/>
<path style="fill:#fafafa; stroke:none;" d="M140 74L141 83C146.062 81.3197 144.956 77.0716 143 73L140 74z"/>
<path style="fill:#606160; stroke:none;" d="M186 73L187 74L186 73z"/>
<path style="fill:#838382; stroke:none;" d="M73 74L74 75L73 74z"/>
<path style="fill:#363635; stroke:none;" d="M133 74L134 75L133 74z"/>
<path style="fill:#2b2c2c; stroke:none;" d="M165.333 74.6667C165.278 74.7222 165.222 75.7778 165.667 75.3333C165.722 75.2778 165.778 74.2223 165.333 74.6667z"/>
<path style="fill:#cdcece; stroke:none;" d="M11 75L12 76L11 75z"/>
<path style="fill:#2f2e2f; stroke:none;" d="M66 75L67 76L66 75z"/>
<path style="fill:#959594; stroke:none;" d="M65 76L66 77L65 76z"/>
<path style="fill:#8a8a8a; stroke:none;" d="M135 76L136 77L135 76z"/>
<path style="fill:#494a4a; stroke:none;" d="M187 76L188 77L187 76z"/>
<path style="fill:#787878; stroke:none;" d="M16 77L17 78L16 77z"/>
<path style="fill:#bbbcbb; stroke:none;" d="M115 77L116 78L115 77z"/>
<path style="fill:#a9a9a9; stroke:none;" d="M140 77L141 78L140 77z"/>
<path style="fill:#383738; stroke:none;" d="M49 78L50 79L49 78z"/>
<path style="fill:#fafafa; stroke:none;" d="M105 78C102.718 86.8204 103.33 94.1368 105 103C99.1796 102.984 94.5425 101.512 89 100L89 104C82.9006 103.375 78.7262 99.393 73 97.8148C69.9883 96.9848 67.026 97.6259 64 98C66.1531 95.3988 67.656 94.5072 71 94C69.8931 89.9433 68.371 86.2223 68 82C61.8679 88.0674 59.1082 98.5466 59.0039 107C58.88 117.033 53.7352 128.262 61.3904 136.815C71.0109 147.563 91.9815 147.639 105 145.701C109.653 145.008 115.909 143.615 119.468 140.351C126.799 133.627 129.377 114.232 126.486 105.039C124.858 99.8633 118.659 96.6962 115.04 92.9853C110.63 88.4627 108.439 83.1116 105 78z"/>
<path style="fill:#3d3e3d; stroke:none;" d="M110 78L111 79L110 78z"/>
<path style="fill:#9f9d9d; stroke:none;" d="M149.333 78.6667C149.278 78.7223 149.222 79.7777 149.667 79.3333C149.722 79.2778 149.778 78.2222 149.333 78.6667z"/>
<path style="fill:#c4c5c5; stroke:none;" d="M193 78L194 79L193 78z"/>
<path style="fill:#c8c8c7; stroke:none;" d="M10 79L11 80L10 79z"/>
<path style="fill:#3e3e3f; stroke:none;" d="M104 79L105 80L104 79z"/>
<path style="fill:#878787; stroke:none;" d="M111 80L112 81L111 80z"/>
<path style="fill:#535353; stroke:none;" d="M120 80L121 81L120 80z"/>
<path style="fill:#4d4e4e; stroke:none;" d="M188 80L189 81L188 80z"/>
<path style="fill:#6e6f6f; stroke:none;" d="M15 81L16 82L15 81z"/>
<path style="fill:#313132; stroke:none;" d="M67 81L68 82L67 81z"/>
<path style="fill:#2e2e2d; stroke:none;" d="M43 82L44 83L43 82z"/>
<path style="fill:#60605f; stroke:none;" d="M61 82L62 83L61 82z"/>
<path style="fill:#646464; stroke:none;" d="M112 82L113 83L112 82z"/>
<path style="fill:#c0c0c0; stroke:none;" d="M116 83L117 84L116 83z"/>
<path style="fill:#acadad; stroke:none;" d="M133 83L134 84L133 83z"/>
<path style="fill:#575656; stroke:none;" d="M141.667 83.3333C141.222 83.7777 142.278 83.7223 142.333 83.6667C142.778 83.2222 141.722 83.2778 141.667 83.3333z"/>
<path style="fill:#363635; stroke:none;" d="M152 83L153 84L152 83z"/>
<path style="fill:#c0bfbf; stroke:none;" d="M194 83L195 84L194 83z"/>
<path style="fill:#7f7f7f; stroke:none;" d="M132 84L133 85L132 84z"/>
<path style="fill:#58585a; stroke:none;" d="M68 85L69 86L68 85z"/>
<path style="fill:#656565; stroke:none;" d="M189 85L190 86L189 85z"/>
<path style="fill:#515050; stroke:none;" d="M14 86L15 87L14 86z"/>
<path style="fill:#373737; stroke:none;" d="M64 86L65 87L64 86z"/>
<path style="fill:#b8b9b9; stroke:none;" d="M68 86L69 87L68 86z"/>
<path style="fill:#393a3a; stroke:none;" d="M109 86L110 87L109 86z"/>
<path style="fill:#f9f9fa; stroke:none;" d="M147 86C148.049 91.0846 149.419 96.0564 151 101C158.791 96.6154 153.159 89.1206 147 86z"/>
<path style="fill:#2f2f2f; stroke:none;" d="M165 86L166 87L165 86z"/>
<path style="fill:#5e5f5e; stroke:none;" d="M42 87L43 88L42 87z"/>
<path style="fill:#474646; stroke:none;" d="M73 87L74 88L73 87z"/>
<path style="fill:#bdbcbc; stroke:none;" d="M117 87L118 88L117 87z"/>
<path style="fill:#9d9d9e; stroke:none;" d="M136 87L137 88L136 87z"/>
<path style="fill:#929290; stroke:none;" d="M58 88L59 89L58 88z"/>
<path style="fill:#2c2b2d; stroke:none;" d="M63 88L64 89L63 88z"/>
<path style="fill:#f8f9f9; stroke:none;" d="M117 88L118 89L117 88z"/>
<path style="fill:#323231; stroke:none;" d="M127 88L128 89L127 88z"/>
<path style="fill:#fafafa; stroke:none;" d="M135 88C133.024 92.2249 131.445 96.5672 130 101C132.442 101.11 134.623 101.428 137 102L137 88L135 88z"/>
<path style="fill:#bcbcbd; stroke:none;" d="M141 88L141 91C141.696 89.4463 141.696 89.5537 141 88z"/>
<path style="fill:#fafafa; stroke:none;" d="M142 88C142 92.4455 143.789 102.056 139.566 104.972C137.499 106.4 134.372 105.992 132 106C132 114.915 131.516 123.466 128.644 132C126.886 137.226 123.874 141.849 122 147C137.225 146.345 145.874 137.196 146 122L149 122C149.328 129.664 148.717 135.493 147 143C149.504 142.069 151.841 141.085 153.986 139.442C166.744 129.67 157.679 116.459 156 104C154.285 104.435 152.005 105.42 150.209 105.022C144.615 103.782 144.54 92.1579 142 88z"/>
<path style="fill:#a5a6a6; stroke:none;" d="M111 89L112 90L111 89z"/>
<path style="fill:#595a59; stroke:none;" d="M117 89L118 90L117 89z"/>
<path style="fill:#464747; stroke:none;" d="M125 89L126 90L125 89z"/>
<path style="fill:#cacaca; stroke:none;" d="M151 89L152 90L151 89z"/>
<path style="fill:#686969; stroke:none;" d="M118 90L119 91L118 90z"/>
<path style="fill:#cecdce; stroke:none;" d="M143 90L144 91L143 90z"/>
<path style="fill:#9a9b9c; stroke:none;" d="M195 90L196 91L195 90z"/>
<path style="fill:#adadad; stroke:none;" d="M75 91L76 92L75 91z"/>
<path style="fill:#bfc0c0; stroke:none;" d="M133 91L134 92L133 91z"/>
<path style="fill:#656565; stroke:none;" d="M141 91L142 92L141 91z"/>
<path style="fill:#c0c2c2; stroke:none;" d="M162 91L163 92L162 91z"/>
<path style="fill:#727374; stroke:none;" d="M8 92L9 93L8 92z"/>
<path style="fill:#5a5c59; stroke:none;" d="M148 92L149 93L148 92z"/>
<path style="fill:#4f4f4f; stroke:none;" d="M190 92L191 93L190 92z"/>
<path style="fill:#3f3f3f; stroke:none;" d="M13.3333 93.6667C13.2778 93.7222 13.2222 94.7778 13.6667 94.3333C13.7222 94.2778 13.7778 93.2222 13.3333 93.6667z"/>
<path style="fill:#737372; stroke:none;" d="M61 93L62 94L61 93z"/>
<path style="fill:#424142; stroke:none;" d="M71 93L72 94L71 93z"/>
<path style="fill:#575657; stroke:none;" d="M127 93L128 94L127 93z"/>
<path style="fill:#a7a6a6; stroke:none;" d="M190 93L191 94L190 93z"/>
<path style="fill:#3d3d3a; stroke:none;" d="M42.3333 94.6667C42.2778 94.7222 42.2222 95.7778 42.6667 95.3333C42.7222 95.2778 42.7778 94.2222 42.3333 94.6667z"/>
<path style="fill:#cccdcf; stroke:none;" d="M66 94L67 95L66 94z"/>
<path style="fill:#5e5f5f; stroke:none;" d="M85 94L86 95L85 94z"/>
<path style="fill:#7d7f7d; stroke:none;" d="M103 94L104 95L103 94z"/>
<path style="fill:#9b9899; stroke:none;" d="M106 94L107 95L106 94z"/>
<path style="fill:#000000; stroke:none;" d="M105 97L116 98C113.502 93.7242 108.043 92.6935 105 97z"/>
<path style="fill:#747675; stroke:none;" d="M113 94L114 95L113 94z"/>
<path style="fill:#cccccd; stroke:none;" d="M123.667 94.3333C123.222 94.7778 124.278 94.7222 124.333 94.6667C124.778 94.2222 123.722 94.2778 123.667 94.3333z"/>
<path style="fill:#f9f9fa; stroke:none;" d="M124 95C125.139 96.0154 125.612 96.3087 127 97C126.749 95.5484 126.685 95.2483 126 94L124 95z"/>
<path style="fill:#858484; stroke:none;" d="M127 94L128 95L127 94z"/>
<path style="fill:#6e6d6d; stroke:none;" d="M144 94L145 95L144 94z"/>
<path style="fill:#717070; stroke:none;" d="M13 95L14 96L13 95z"/>
<path style="fill:#acadac; stroke:none;" d="M93 96L94 97L93 96z"/>
<path style="fill:#7f7f7f; stroke:none;" d="M95 97L96 98L95 97z"/>
<path style="fill:#989998; stroke:none;" d="M119 97L120 98L119 97z"/>
<path style="fill:#5d5c5e; stroke:none;" d="M75 98L76 99L75 98z"/>
<path style="fill:#525152; stroke:none;" d="M98 98L99 99L98 98z"/>
<path style="fill:#c6c5c7; stroke:none;" d="M145 98L146 99L145 98z"/>
<path style="fill:#babbb9; stroke:none;" d="M89 99L90 100L89 99z"/>
<path style="fill:#7c7c7c; stroke:none;" d="M130 99L131 100L130 99z"/>
<path style="fill:#333131; stroke:none;" d="M141 99L142 100L141 99z"/>
<path style="fill:#3f3d3c; stroke:none;" d="M150 99L151 100L150 99z"/>
<path style="fill:#4f4f4c; stroke:none;" d="M43 100L44 101L43 100z"/>
<path style="fill:#343635; stroke:none;" d="M91 100L92 101L91 100z"/>
<path style="fill:#bebdbe; stroke:none;" d="M123 100L124 101L123 100z"/>
<path style="fill:#6f6f6e; stroke:none;" d="M141 100L142 101L141 100z"/>
<path style="fill:#c5c5c6; stroke:none;" d="M159 100L160 101L159 100z"/>
<path style="fill:#545350; stroke:none;" d="M93 101L94 102L93 101z"/>
<path style="fill:#b4b2b2; stroke:none;" d="M135 101L136 102L135 101z"/>
<path style="fill:#bfbebe; stroke:none;" d="M141 101L141 104C141.696 102.446 141.696 102.554 141 101z"/>
<path style="fill:#515152; stroke:none;" d="M146 101L147 102L146 101z"/>
<path style="fill:#6e6d6e; stroke:none;" d="M104 102L105 103L104 102z"/>
<path style="fill:#535253; stroke:none;" d="M125 102L126 103L125 102z"/>
<path style="fill:#9d9c9c; stroke:none;" d="M44 103L45 104L44 103z"/>
<path style="fill:#999b97; stroke:none;" d="M49 103L50 104L49 103z"/>
<path style="fill:#6b6a6b; stroke:none;" d="M88 103L89 104L88 103z"/>
<path style="fill:#d2d2d3; stroke:none;" d="M127 104L127 107C127.696 105.446 127.696 105.554 127 104z"/>
<path style="fill:#9a9999; stroke:none;" d="M13 105L14 106L13 105z"/>
<path style="fill:#808181; stroke:none;" d="M68 105L69 106L68 105z"/>
<path style="fill:#000000; stroke:none;" d="M62 114C68.9285 110.998 71.0822 110.381 78 114C79.5269 103.29 59.5214 102.846 62 114z"/>
<path style="fill:#5b5c5d; stroke:none;" d="M70 105L71 106L70 105z"/>
<path style="fill:#3e3e3e; stroke:none;" d="M13.3333 106.667C13.2778 106.722 13.2222 107.778 13.6667 107.333C13.7222 107.278 13.7778 106.222 13.3333 106.667z"/>
<path style="fill:#000000; stroke:none;" d="M99 113C102.55 112.242 106.299 109.947 110 110.666C112.232 111.1 117.11 115.401 119.168 113.253C121.483 110.837 116.718 107.735 114.985 107.009C108.649 104.356 100.977 106.127 99 113z"/>
<path style="fill:#3c3d3b; stroke:none;" d="M46 107L47 108L46 107z"/>
<path style="fill:#1f1f1f; stroke:none;" d="M58 107L58 114C59.0595 111.466 59.0595 109.534 58 107z"/>
<path style="fill:#acabac; stroke:none;" d="M127 107L127 110C127.696 108.446 127.696 108.554 127 107z"/>
<path style="fill:#30302f; stroke:none;" d="M8 108L9 109L8 108z"/>
<path style="fill:#b4b3b4; stroke:none;" d="M190 108L191 109L190 108z"/>
<path style="fill:#e1dfe0; stroke:none;" d="M8.33333 109.667C8.27777 109.722 8.22222 110.778 8.66667 110.333C8.72222 110.278 8.77777 109.222 8.33333 109.667z"/>
<path style="fill:#2d2d2d; stroke:none;" d="M190.333 109.667C190.278 109.722 190.222 110.778 190.667 110.333C190.722 110.278 190.778 109.222 190.333 109.667z"/>
<path style="fill:#626162; stroke:none;" d="M67 110L68 111L67 110z"/>
<path style="fill:#828282; stroke:none;" d="M127 110L127 114C127.71 112.241 127.71 111.759 127 110z"/>
<path style="fill:#4c4d4e; stroke:none;" d="M195 110L196 111L195 110z"/>
<path style="fill:#666667; stroke:none;" d="M98.3333 111.667C98.2778 111.722 98.2222 112.778 98.6667 112.333C98.7222 112.278 98.7778 111.222 98.3333 111.667z"/>
<path style="fill:#787676; stroke:none;" d="M103 111L104 112L103 111z"/>
<path style="fill:#505150; stroke:none;" d="M113 111L114 112L113 111z"/>
<path style="fill:#424342; stroke:none;" d="M120 111L121 112L120 111z"/>
<path style="fill:#4e4e51; stroke:none;" d="M162 112L163 113L162 112z"/>
<path style="fill:#656465; stroke:none;" d="M61 113L62 114L61 113z"/>
<path style="fill:#3a3a3a; stroke:none;" d="M64 113L65 114L64 113z"/>
<path style="fill:#494949; stroke:none;" d="M78 113L79 114L78 113z"/>
<path style="fill:#2f2f2f; stroke:none;" d="M99.6667 113.333C99.2222 113.778 100.278 113.722 100.333 113.667C100.778 113.222 99.7222 113.278 99.6667 113.333z"/>
<path style="fill:#424242; stroke:none;" d="M120 113L121 114L120 113z"/>
<path style="fill:#fafafa; stroke:none;" d="M51 114C45.7242 123.041 42.5544 132.278 48 142C49.8169 139.794 50.3938 137.802 51 135L53 135C55.8495 141.797 59.3214 146.303 67 147C63.9282 143.793 60.1289 141.41 57.2137 137.996C51.2006 130.953 52.3783 123.362 54 115L51 114z"/>
<path style="fill:#2f2e2f; stroke:none;" d="M52 114L53 115L52 114z"/>
<path style="fill:#323232; stroke:none;" d="M119 114L120 115L119 114z"/>
<path style="fill:#474848; stroke:none;" d="M127 114L128 115L127 114z"/>
<path style="fill:#3f3f3f; stroke:none;" d="M14 115L15 116L14 115z"/>
<path style="fill:#414140; stroke:none;" d="M9 116L10 117L9 116z"/>
<path style="fill:#323331; stroke:none;" d="M44 116L45 117L44 116z"/>
<path style="fill:#575857; stroke:none;" d="M189 116L190 117L189 116z"/>
<path style="fill:#6b6d6d; stroke:none;" d="M53 117L54 118L53 117z"/>
<path style="fill:#787877; stroke:none;" d="M159 117L160 118L159 117z"/>
<path style="fill:#878786; stroke:none;" d="M43 118L44 119L43 118z"/>
<path style="fill:#4a494a; stroke:none;" d="M131 118L132 119L131 118z"/>
<path style="fill:#8f908f; stroke:none;" d="M131 119L132 120L131 119z"/>
<path style="fill:#3e3e3e; stroke:none;" d="M15 120L16 121L15 120z"/>
<path style="fill:#c4c3c4; stroke:none;" d="M160 120L161 121L160 120z"/>
<path style="fill:#333131; stroke:none;" d="M10 121L11 122L10 121z"/>
<path style="fill:#474749; stroke:none;" d="M165 121L166 122L165 121z"/>
<path style="fill:#474848; stroke:none;" d="M188 121L189 122L188 121z"/>
<path style="fill:#777977; stroke:none;" d="M52 122L53 123L52 122z"/>
<path style="fill:#8c8d8d; stroke:none;" d="M126 122L127 123L126 122z"/>
<path style="fill:#abaaaa; stroke:none;" d="M146 122L147 123L146 122z"/>
<path style="fill:#c4c4c4; stroke:none;" d="M148 122L149 123L148 122z"/>
<path style="fill:#787978; stroke:none;" d="M193 122L194 123L193 122z"/>
<path style="fill:#4e4d4d; stroke:none;" d="M16 124L17 125L16 124z"/>
<path style="fill:#898887; stroke:none;" d="M83.6667 124.333C83.2222 124.778 84.2778 124.722 84.3333 124.667C84.7778 124.222 83.7222 124.278 83.6667 124.333z"/>
<path style="fill:#000000; stroke:none;" d="M85.0008 124.429C72.0592 126.364 81.2312 142.007 91 140.771C96.2408 140.108 104.318 132.276 99.9684 126.603C97.4311 123.293 88.6083 123.89 85.0008 124.429z"/>
<path style="fill:#8f8f8f; stroke:none;" d="M93.6667 124.333C93.2222 124.778 94.2778 124.722 94.3333 124.667C94.7778 124.222 93.7222 124.278 93.6667 124.333z"/>
<path style="fill:#c4c3c4; stroke:none;" d="M95 124L96 125L95 124z"/>
<path style="fill:#2e2d2d; stroke:none;" d="M11 125L12 126L11 125z"/>
<path style="fill:#6b6c6c; stroke:none;" d="M78 125L79 126L78 125z"/>
<path style="fill:#cdcdcd; stroke:none;" d="M100 125L101 126L100 125z"/>
<path style="fill:#707170; stroke:none;" d="M130 125L131 126L130 125z"/>
<path style="fill:#2f2e2f; stroke:none;" d="M187 125L188 126L187 125z"/>
<path style="fill:#9a9a99; stroke:none;" d="M192 126L193 127L192 126z"/>
<path style="fill:#b3b2b3; stroke:none;" d="M17 127L18 128L17 127z"/>
<path style="fill:#6d6c6c; stroke:none;" d="M40 127L41 128L40 127z"/>
<path style="fill:#3a3a3a; stroke:none;" d="M52 127L53 128L52 127z"/>
<path style="fill:#4b4a4b; stroke:none;" d="M125 127L126 128L125 127z"/>
<path style="fill:#444344; stroke:none;" d="M84 128L85 129L84 128z"/>
<path style="fill:#868787; stroke:none;" d="M85 128L86 129L85 128z"/>
<path style="fill:#faf9fa; stroke:none;" d="M83 129C84.0903 138.756 94.2447 139.052 97 130C92.1559 128.36 88.0212 128.082 83 129z"/>
<path style="fill:#b6b5b6; stroke:none;" d="M91 128L92 129L91 128z"/>
<path style="fill:#7e7e7e; stroke:none;" d="M92 128L93 129L92 128z"/>
<path style="fill:#585858; stroke:none;" d="M186 128L187 129L186 128z"/>
<path style="fill:#939393; stroke:none;" d="M82 129L83 130L82 129z"/>
<path style="fill:#cbcbcd; stroke:none;" d="M96 129L97 130L96 129z"/>
<path style="fill:#444544; stroke:none;" d="M129 129L130 130L129 129z"/>
<path style="fill:#8e8d8e; stroke:none;" d="M145 129L146 130L145 129z"/>
<path style="fill:#b4b4b5; stroke:none;" d="M18 130L19 131L18 130z"/>
<path style="fill:#4b4c4c; stroke:none;" d="M82 130L83 131L82 130z"/>
<path style="fill:#9b9b9b; stroke:none;" d="M124 130L125 131L124 130z"/>
<path style="fill:#3e3e3e; stroke:none;" d="M165 130L166 131L165 130z"/>
<path style="fill:#3e3d3d; stroke:none;" d="M78 131L79 132L78 131z"/>
<path style="fill:#3f3f3f; stroke:none;" d="M185 131L186 132L185 131z"/>
<path style="fill:#c6c5c5; stroke:none;" d="M13 132L14 133L13 132z"/>
<path style="fill:#a5a7a7; stroke:none;" d="M53 132L54 133L53 132z"/>
<path style="fill:#bababd; stroke:none;" d="M58 132L59 133L58 132z"/>
<path style="fill:#474648; stroke:none;" d="M100 132L101 133L100 132z"/>
<path style="fill:#bbbaba; stroke:none;" d="M149 132L150 133L149 132z"/>
<path style="fill:#2a2b2a; stroke:none;" d="M190 132L191 133L190 132z"/>
<path style="fill:#5e5f5e; stroke:none;" d="M19 133L20 134L19 133z"/>
<path style="fill:#848283; stroke:none;" d="M83 133L84 134L83 133z"/>
<path style="fill:#878788; stroke:none;" d="M123 133L124 134L123 133z"/>
<path style="fill:#424242; stroke:none;" d="M59 134L60 135L59 134z"/>
<path style="fill:#898a8a; stroke:none;" d="M79 134L80 135L79 134z"/>
<path style="fill:#777778; stroke:none;" d="M95 134L96 135L95 134z"/>
<path style="fill:#616060; stroke:none;" d="M51 135L52 136L51 135z"/>
<path style="fill:#434242; stroke:none;" d="M143 135L144 136L143 135z"/>
<path style="fill:#a5a6a5; stroke:none;" d="M189 135L190 136L189 135z"/>
<path style="fill:#5a5b5a; stroke:none;" d="M40 136L41 137L40 136z"/>
<path style="fill:#858587; stroke:none;" d="M93 136L94 137L93 136z"/>
<path style="fill:#3b3a3a; stroke:none;" d="M157 136L158 137L157 136z"/>
<path style="fill:#373737; stroke:none;" d="M183 136L184 137L183 136z"/>
<path style="fill:#afafaf; stroke:none;" d="M15 137L16 138L15 137z"/>
<path style="fill:#4c4c4c; stroke:none;" d="M81 137L82 138L81 137z"/>
<path style="fill:#4c4b4b; stroke:none;" d="M89.6667 137.333C89.2222 137.778 90.2778 137.722 90.3333 137.667C90.7778 137.222 89.7222 137.278 89.6667 137.333z"/>
<path style="fill:#babbbc; stroke:none;" d="M148 137L149 138L148 137z"/>
<path style="fill:#555655; stroke:none;" d="M156 137L157 138L156 137z"/>
<path style="fill:#343435; stroke:none;" d="M54 138L55 139L54 138z"/>
<path style="fill:#545453; stroke:none;" d="M82 138L83 139L82 138z"/>
<path style="fill:#b6b6b6; stroke:none;" d="M141 138L142 139L141 138z"/>
<path style="fill:#363636; stroke:none;" d="M155 138L156 139L155 138z"/>
<path style="fill:#6f6e70; stroke:none;" d="M161 138L162 139L161 138z"/>
<path style="fill:#6d6d6e; stroke:none;" d="M182 138L183 139L182 138z"/>
<path style="fill:#3e3e3e; stroke:none;" d="M16 139L17 140L16 139z"/>
<path style="fill:#404040; stroke:none;" d="M41 139L42 140L41 139z"/>
<path style="fill:#4c4c4c; stroke:none;" d="M46 139L47 140L46 139z"/>
<path style="fill:#5c5d5d; stroke:none;" d="M64 139L65 140L64 139z"/>
<path style="fill:#403f41; stroke:none;" d="M95 139L96 140L95 139z"/>
<path style="fill:#c1c2c2; stroke:none;" d="M120 139L121 140L120 139z"/>
<path style="fill:#434344; stroke:none;" d="M55 140L56 141L55 140z"/>
<path style="fill:#858484; stroke:none;" d="M93 140L94 141L93 140z"/>
<path style="fill:#353634; stroke:none;" d="M147 140L148 141L147 140z"/>
<path style="fill:#565554; stroke:none;" d="M152 140L153 141L152 140z"/>
<path style="fill:#878889; stroke:none;" d="M181 140L182 141L181 140z"/>
<path style="fill:#9c9b9c; stroke:none;" d="M42 141L43 142L42 141z"/>
<path style="fill:#3c3c3c; stroke:none;" d="M118 141L119 142L118 141z"/>
<path style="fill:#b1b2b1; stroke:none;" d="M158 141L159 142L158 141z"/>
<path style="fill:#abadab; stroke:none;" d="M70 142L71 143L70 142z"/>
<path style="fill:#aeafaf; stroke:none;" d="M148 142L149 143L148 142z"/>
<path style="fill:#6a6a6a; stroke:none;" d="M180 142L181 143L180 142z"/>
<path style="fill:#a4a5a3; stroke:none;" d="M62 143L63 144L62 143z"/>
<path style="fill:#898a8a; stroke:none;" d="M113 143L114 144L113 143z"/>
<path style="fill:#2d2d2e; stroke:none;" d="M123 143L124 144L123 143z"/>
<path style="fill:#444344; stroke:none;" d="M136 143L137 144L136 143z"/>
<path style="fill:#3a3a3b; stroke:none;" d="M76 144L77 145L76 144z"/>
<path style="fill:#313030; stroke:none;" d="M110 144L111 145L110 144z"/>
<path style="fill:#c1c1c2; stroke:none;" d="M134 144L135 145L134 144z"/>
<path style="fill:#3f4041; stroke:none;" d="M19 145L20 146L19 145z"/>
<path style="fill:#9e9e9e; stroke:none;" d="M25 145L26 146L25 145z"/>
<path style="fill:#828382; stroke:none;" d="M53 145L54 146L53 145z"/>
<path style="fill:#babbbc; stroke:none;" d="M81 145L82 146L81 145z"/>
<path style="fill:#303030; stroke:none;" d="M106 145L107 146L106 145z"/>
<path style="fill:#302f2f; stroke:none;" d="M132 145L133 146L132 145z"/>
<path style="fill:#7a7977; stroke:none;" d="M152 145L153 146L152 145z"/>
<path style="fill:#3f4041; stroke:none;" d="M54 146L55 147L54 146z"/>
<path style="fill:#767778; stroke:none;" d="M62 146L63 147L62 146z"/>
<path style="fill:#2f3030; stroke:none;" d="M87.6667 146.333C87.2222 146.778 88.2778 146.722 88.3333 146.667C88.7778 146.222 87.7222 146.278 87.6667 146.333z"/>
<path style="fill:#5b5c5b; stroke:none;" d="M89 146L90 147L89 146z"/>
<path style="fill:#b7b7b7; stroke:none;" d="M90 146L91 147L90 146z"/>
<path style="fill:#858687; stroke:none;" d="M97 146L98 147L97 146z"/>
<path style="fill:#2c2c2e; stroke:none;" d="M98.6667 146.333C98.2222 146.778 99.2778 146.722 99.3333 146.667C99.7778 146.222 98.7222 146.278 98.6667 146.333z"/>
<path style="fill:#686868; stroke:none;" d="M127 146L128 147L127 146z"/>
<path style="fill:#cbcbcb; stroke:none;" d="M150 146L151 147L150 146z"/>
<path style="fill:#969697; stroke:none;" d="M20 147L21 148L20 147z"/>
<path style="fill:#b2b2b2; stroke:none;" d="M55 147L56 148L55 147z"/>
<path style="fill:#787978; stroke:none;" d="M115 147L116 148L115 147z"/>
<path style="fill:#a0a19f; stroke:none;" d="M177 147L178 148L177 147z"/>
<path style="fill:#ababab; stroke:none;" d="M73 148L74 149L73 148z"/>
<path style="fill:#a5a3a2; stroke:none;" d="M112 148L113 149L112 148z"/>
<path style="fill:#fafaf9; stroke:none;" d="M112 150C114.092 149.594 114.02 149.783 115 148C113.42 148.684 113.223 148.805 112 150z"/>
<path style="fill:#7f8080; stroke:none;" d="M58 149L59 150L58 149z"/>
<path style="fill:#747474; stroke:none;" d="M78 149L79 150L78 149z"/>
<path style="fill:#999a9a; stroke:none;" d="M115 149L116 150L115 149z"/>
<path style="fill:#858585; stroke:none;" d="M182 149L183 150L182 149z"/>
<path style="fill:#2e2d2d; stroke:none;" d="M28 150L29 151L28 150z"/>
<path style="fill:#8b8b8a; stroke:none;" d="M72 150L73 151L72 150z"/>
<path style="fill:#f9f9fa; stroke:none;" d="M89 151C87.8465 153.249 87.2489 153.846 85 155C85.0022 157.893 84.3492 162.143 86.6034 164.397C93.4232 171.214 108.922 160.061 112 154C104.756 149.054 97.5351 151 89 151z"/>
<path style="fill:#f4f4f4; stroke:none;" d="M115 150C116.248 150.685 116.548 150.749 118 151C116.752 150.315 116.452 150.251 115 150z"/>
<path style="fill:#8e8d8d; stroke:none;" d="M131 150L132 151L131 150z"/>
<path style="fill:#bfbfbf; stroke:none;" d="M175 150L176 151L175 150z"/>
<path style="fill:#bab9ba; stroke:none;" d="M118 151L119 152L118 151z"/>
<path style="fill:#5d5d5d; stroke:none;" d="M88 152L89 153L88 152z"/>
<path style="fill:#585858; stroke:none;" d="M180 152L181 153L180 152z"/>
<path style="fill:#adaead; stroke:none;" d="M88 153L89 154L88 153z"/>
<path style="fill:#6f6f71; stroke:none;" d="M173 153L174 154L173 153z"/>
<path style="fill:#89898a; stroke:none;" d="M31 154L32 155L31 154z"/>
<path style="fill:#8b8a88; stroke:none;" d="M127 154L128 155L127 154z"/>
<path style="fill:#aeacae; stroke:none;" d="M71 155L72 156L71 155z"/>
<path style="fill:#7f7f7f; stroke:none;" d="M178 155L179 156L178 155z"/>
<path style="fill:#6d6c6d; stroke:none;" d="M26 156L27 157L26 156z"/>
<path style="fill:#2e2e2d; stroke:none;" d="M84 156L85 157L84 156z"/>
<path style="fill:#f9f9fa; stroke:none;" d="M82 172C82.7679 173.314 82.6858 173.232 84 174C83.5982 175.944 83.5982 176.056 84 178C84.6848 176.752 84.7488 176.452 85 175C89.5264 175.627 92.3593 176.524 94 181C96.1723 180.536 97.9583 179.895 100 179C100 180.797 100.014 180.521 101 182C102.823 181.255 104.023 181.046 106 181L105 185C107.316 185 112.491 185.509 114 184C115.889 182.111 112.838 181.209 116 182C116.641 177.771 119.452 175.239 118 171L125 170C123.953 175.621 123.047 181.275 123 187C129.196 185.567 134.994 183.032 141 181C139.03 171.574 135.287 162.973 126 158.877C123.668 157.848 120.616 156.406 118 156.929C112.456 158.038 107.163 164.955 102.004 167.627C99.2163 169.071 96.0141 171.129 92.9105 171.722C89.241 172.423 85.6743 171.204 82 172z"/>
<path style="fill:#4a4a4b; stroke:none;" d="M131 156L132 157L131 156z"/>
<path style="fill:#fafafa; stroke:none;" d="M61 179C62.7447 179.89 64.125 180.453 66 181L72 167L74 167L75 168C73.5104 171.632 68.9309 178.656 71.1211 182.581C72.9052 185.778 78.7979 186.375 82 187.113C93.3972 189.737 106.491 190.137 118 188C118.756 182.149 120.678 176.714 122 171L118 171C119.053 175.04 116.31 177.91 116 182C112.794 181.905 109.15 184.93 105 185L106 181C103.623 180.689 103.017 180.747 101 182L100 179L94 181C93.2947 175.522 87.3116 172.968 84 178L84 174C82.3648 173.455 82.5451 173.635 82 172C86.3844 171.51 92.8858 173.564 96 170C86.2077 172.249 80.1086 166.745 80 157C69.3447 160.077 63.81 168.726 61 179z"/>
<path style="fill:#9f9e9e; stroke:none;" d="M84 157L85 158L84 157z"/>
<path style="fill:#676666; stroke:none;" d="M122 157L123 158L122 157z"/>
<path style="fill:#949696; stroke:none;" d="M75 158L76 159L75 158z"/>
<path style="fill:#dddcdc; stroke:none;" d="M84 158L84 161C84.6961 159.446 84.6961 159.554 84 158z"/>
<path style="fill:#69696b; stroke:none;" d="M108 158L109 159L108 158z"/>
<path style="fill:#7a797b; stroke:none;" d="M134 158L135 159L134 158z"/>
<path style="fill:#777676; stroke:none;" d="M169 158L170 159L169 158z"/>
<path style="fill:#424241; stroke:none;" d="M73 159L74 160L73 159z"/>
<path style="fill:#999899; stroke:none;" d="M127 159L128 160L127 159z"/>
<path style="fill:#bbbcbc; stroke:none;" d="M168 159L169 160L168 159z"/>
<path style="fill:#9e9e9e; stroke:none;" d="M175 159L176 160L175 159z"/>
<path style="fill:#adaeae; stroke:none;" d="M29 160L30 161L29 160z"/>
<path style="fill:#757575; stroke:none;" d="M36 160L37 161L36 160z"/>
<path style="fill:#5b5b5b; stroke:none;" d="M129 160L130 161L129 160z"/>
<path style="fill:#323230; stroke:none;" d="M174 160L175 161L174 160z"/>
<path style="fill:#5a5b5b; stroke:none;" d="M30 161L31 162L30 161z"/>
<path style="fill:#979898; stroke:none;" d="M37 161L38 162L37 161z"/>
<path style="fill:#969595; stroke:none;" d="M84 161L85 162L84 161z"/>
<path style="fill:#868887; stroke:none;" d="M137 161L138 162L137 161z"/>
<path style="fill:#acaead; stroke:none;" d="M38 162L39 163L38 162z"/>
<path style="fill:#333532; stroke:none;" d="M110 162L111 163L110 162z"/>
<path style="fill:#a7a8a8; stroke:none;" d="M39 163L40 164L39 163z"/>
<path style="fill:#9f9e9e; stroke:none;" d="M40 164L41 165L40 164z"/>
<path style="fill:#c7c6c8; stroke:none;" d="M80 164L81 165L80 164z"/>
<path style="fill:#a7a8a8; stroke:none;" d="M41 165L42 166L41 165z"/>
<path style="fill:#58585a; stroke:none;" d="M42 166L43 167L42 166z"/>
<path style="fill:#2e2f2f; stroke:none;" d="M66 166L67 167L66 166z"/>
<path style="fill:#3f3f3f; stroke:none;" d="M104 166L105 167L104 166z"/>
<path style="fill:#818382; stroke:none;" d="M135 166L136 167L135 166z"/>
<path style="fill:#a7a6a6; stroke:none;" d="M72 167L73 168L72 167z"/>
<path style="fill:#666768; stroke:none;" d="M73 167L74 168L73 167z"/>
<path style="fill:#414242; stroke:none;" d="M82 167L83 168L82 167z"/>
<path style="fill:#323231; stroke:none;" d="M102 167L103 168L102 167z"/>
<path style="fill:#c1c2c2; stroke:none;" d="M141 167L142 168L141 167z"/>
<path style="fill:#a7a8a9; stroke:none;" d="M160 167L161 168L160 167z"/>
<path style="fill:#7f7f7f; stroke:none;" d="M71 168L72 169L71 168z"/>
<path style="fill:#6f6f6f; stroke:none;" d="M83 168L84 169L83 168z"/>
<path style="fill:#3d3d3d; stroke:none;" d="M100 168L101 169L100 168z"/>
<path style="fill:#3b3b3e; stroke:none;" d="M159 168L160 169L159 168z"/>
<path style="fill:#4b4b4b; stroke:none;" d="M88 170L89 171L88 170z"/>
<path style="fill:#4d4d4d; stroke:none;" d="M93 170L94 171L93 170z"/>
<path style="fill:#cacacb; stroke:none;" d="M94 170L95 171L94 170z"/>
<path style="fill:#7d7c7d; stroke:none;" d="M122 170L123 171L122 170z"/>
<path style="fill:#8b8b8c; stroke:none;" d="M124 170L125 171L124 170z"/>
<path style="fill:#413f3f; stroke:none;" d="M48 171L49 172L48 171z"/>
<path style="fill:#656564; stroke:none;" d="M41 172L42 173L41 172z"/>
<path style="fill:#454544; stroke:none;" d="M124 172L125 173L124 172z"/>
<path style="fill:#b0b1b1; stroke:none;" d="M138 172L139 173L138 172z"/>
<path style="fill:#a9a9a9; stroke:none;" d="M51 173L52 174L51 173z"/>
<path style="fill:#484949; stroke:none;" d="M161 173L162 174L161 173z"/>
<path style="fill:#b2b2b4; stroke:none;" d="M57 174L58 175L57 174z"/>
<path style="fill:#828181; stroke:none;" d="M62 174L63 175L62 174z"/>
<path style="fill:#8e8d8d; stroke:none;" d="M151 174L152 175L151 174z"/>
<path style="fill:#bbbdbd; stroke:none;" d="M160 174L161 175L160 174z"/>
<path style="fill:#969595; stroke:none;" d="M54 175L55 176L54 175z"/>
<path style="fill:#868585; stroke:none;" d="M46 176L47 177L46 176z"/>
<path style="fill:#494949; stroke:none;" d="M67 176L68 177L67 176z"/>
<path style="fill:#3b3c3c; stroke:none;" d="M71 176L72 177L71 176z"/>
<path style="fill:#4d4c4c; stroke:none;" d="M148 176L149 177L148 176z"/>
<path style="fill:#cecdce; stroke:none;" d="M146 177L147 178L146 177z"/>
<path style="fill:#c5c5c5; stroke:none;" d="M156 177L157 178L156 177z"/>
<path style="fill:#727271; stroke:none;" d="M49 178L50 179L49 178z"/>
<path style="fill:#5d5c5d; stroke:none;" d="M123 178L124 179L123 178z"/>
<path style="fill:#b3b3b2; stroke:none;" d="M140 178L141 179L140 178z"/>
<path style="fill:#8b8b8b; stroke:none;" d="M61 179L62 180L61 179z"/>
<path style="fill:#303131; stroke:none;" d="M70 179L71 180L70 179z"/>
<path style="fill:#b6b7b6; stroke:none;" d="M119 179L120 180L119 179z"/>
<path style="fill:#c9caca; stroke:none;" d="M123 179L124 180L123 179z"/>
<path style="fill:#8e8e8c; stroke:none;" d="M153 179L154 180L153 179z"/>
<path style="fill:#848484; stroke:none;" d="M52 180L53 181L52 180z"/>
<path style="fill:#89898a; stroke:none;" d="M63 180L64 181L63 180z"/>
<path style="fill:#777877; stroke:none;" d="M65 181L66 182L65 181z"/>
<path style="fill:#9d9d9d; stroke:none;" d="M136 182L137 183L136 182z"/>
<path style="fill:#878887; stroke:none;" d="M148 182L149 183L148 182z"/>
<path style="fill:#979797; stroke:none;" d="M70 183L71 184L70 183z"/>
<path style="fill:#2c2c2c; stroke:none;" d="M134 183L135 184L134 183z"/>
<path style="fill:#484847; stroke:none;" d="M146 183L147 184L146 183z"/>
<path style="fill:#c7c9c7; stroke:none;" d="M59 184L60 185L59 184z"/>
<path style="fill:#b6b6b5; stroke:none;" d="M118 184L119 185L118 184z"/>
<path style="fill:#737373; stroke:none;" d="M131 184L132 185L131 184z"/>
<path style="fill:#cacbcb; stroke:none;" d="M61 185L62 186L61 185z"/>
<path style="fill:#454647; stroke:none;" d="M118 185L119 186L118 185z"/>
<path style="fill:#5e5e5d; stroke:none;" d="M128 185L129 186L128 185z"/>
<path style="fill:#333132; stroke:none;" d="M142 185L143 186L142 185z"/>
<path style="fill:#636363; stroke:none;" d="M79 186L80 187L79 186z"/>
<path style="fill:#5f5f60; stroke:none;" d="M122 186L123 187L122 186z"/>
<path style="fill:#818181; stroke:none;" d="M140 186L141 187L140 186z"/>
<path style="fill:#5b5b5b; stroke:none;" d="M83 187L84 188L83 187z"/>
<path style="fill:#b8b8b8; stroke:none;" d="M138 187L139 188L138 187z"/>
<path style="fill:#c5c6c5; stroke:none;" d="M68 188L69 189L68 188z"/>
<path style="fill:#2c2c2c; stroke:none;" d="M88 188L89 189L88 188z"/>
<path style="fill:#646363; stroke:none;" d="M89 188L90 189L89 188z"/>
<path style="fill:#4f4f4f; stroke:none;" d="M115 188L116 189L115 188z"/>
<path style="fill:#2a2b2c; stroke:none;" d="M135 188L136 189L135 188z"/>
<path style="fill:#9e9e9e; stroke:none;" d="M71 189L72 190L71 189z"/>
<path style="fill:#4d4d4c; stroke:none;" d="M98 189C100.332 189.985 102.457 189.981 105 190C102.668 189.015 100.543 189.019 98 189z"/>
<path style="fill:#adacac; stroke:none;" d="M74 190L75 191L74 190z"/>
<path style="fill:#888887; stroke:none;" d="M126 191L127 192L126 191z"/>
<path style="fill:#585757; stroke:none;" d="M82 192L83 193L82 192z"/>
<path style="fill:#a1a1a1; stroke:none;" d="M122 192L123 193L122 192z"/>
<path style="fill:#a2a4a4; stroke:none;" d="M87 193L88 194L87 193z"/>
<path style="fill:#bcbcbb; stroke:none;" d="M117 193L118 194L117 193z"/>
<path style="fill:#c0c0c0; stroke:none;" d="M95.6667 194.333C95.2222 194.778 96.2778 194.722 96.3333 194.667C96.7778 194.222 95.7222 194.278 95.6667 194.333z"/>
<path style="fill:#6a6b6b; stroke:none;" d="M97 194L98 195L97 194z"/>
<path style="fill:#5a5a5a; stroke:none;" d="M106 194L107 195L106 194z"/>
<path style="fill:#9d9d9d; stroke:none;" d="M107 194L108 195L107 194z"/>
<path style="fill:#d4d4d5; stroke:none;" d="M108.667 194.333C108.222 194.778 109.278 194.722 109.333 194.667C109.778 194.222 108.722 194.278 108.667 194.333z"/>
</svg>
